<?xml version="1.0" encoding="UTF-8"?>
<svg version="1.1" xmlns="http://www.w3.org/2000/svg" width="1024" height="1024">
<path d="M0 0 C337.92 0 675.84 0 1024 0 C1024 337.92 1024 675.84 1024 1024 C686.08 1024 348.16 1024 0 1024 C0 686.08 0 348.16 0 0 Z " fill="#677F89" transform="translate(0,0)"/>
<path d="M0 0 C2.0276983 -0.0095929 4.05433083 -0.04061367 6.08178711 -0.07226562 C20.29675825 -0.19307827 32.91570463 2.52718674 45.87670898 8.49023438 C46.90924805 8.94269531 47.94178711 9.39515625 49.00561523 9.86132812 C59.31016755 14.48865539 68.53705105 20.38459959 77.25170898 27.55273438 C77.93692627 28.11613525 78.62214355 28.67953613 79.328125 29.26000977 C96.81105224 43.87572865 111.35691854 66.46948406 115.12670898 89.24023438 C115.32780273 90.36042969 115.52889648 91.480625 115.73608398 92.63476562 C120.72325772 124.27636116 114.00045204 153.85700855 95.31420898 179.75195312 C79.71289992 200.44535612 59.99895298 214.70899698 35.25170898 222.61523438 C34.46715332 222.86611816 33.68259766 223.11700195 32.87426758 223.37548828 C4.64096816 231.96823158 -26.60733194 225.98579413 -52.13891602 212.51757812 C-80.00526676 196.83382431 -98.79409893 174.18066763 -107.94750977 143.65820312 C-110.40393791 134.13205496 -111.05975263 124.92733722 -111.05859375 115.12670898 C-111.06076728 113.07514274 -111.07893039 111.02412684 -111.09790039 108.97265625 C-111.22466691 80.95767861 -100.34598357 56.51748931 -81.01782227 36.35351562 C-80.31012695 35.65613281 -79.60243164 34.95875 -78.87329102 34.24023438 C-78.1552832 33.51191406 -77.43727539 32.78359375 -76.69750977 32.03320312 C-56.39528974 12.54989618 -28.05324148 0.07983847 0 0 Z " fill="#FAFBFC" transform="translate(501.873291015625,220.759765625)"/>
<path d="M0 0 C0.99 0 1.98 0 3 0 C4.5078125 2.09765625 4.5078125 2.09765625 6.125 5.0625 C6.74503906 6.17496094 7.36507813 7.28742188 8.00390625 8.43359375 C8.33148926 9.0251123 8.65907227 9.61663086 8.99658203 10.22607422 C10.60706948 13.07322795 12.34597595 15.84084274 14.0625 18.625 C20.2098299 28.75159821 25.65934252 39.27244341 31.23779297 49.71826172 C33.41710902 53.77677742 35.63170728 57.81520585 37.85083008 61.85205078 C42.07167248 69.5311038 46.19585713 77.2332517 50.06396484 85.09619141 C52.61830409 90.28019185 55.29352817 95.39396003 58 100.5 C61.02801994 106.21724444 64.00501246 111.95178896 66.875 117.75 C74.44022574 133.00047296 82.32242312 148.11322466 90.64624023 162.96411133 C93.13351193 167.42677202 95.4304961 171.87091516 97.44921875 176.56640625 C100.47809744 183.74190366 100.47809744 183.74190366 105 190 C109.06388039 191.43169528 112.03992308 191.46067534 116.32421875 191.2109375 C126.37594703 190.63411144 134.62808085 196.78585021 142 203 C150.29383137 210.40009954 155.36197843 222.85564222 156.3359375 233.76171875 C156.48207421 248.44845795 152.88274132 259.8847387 142.625 270.75 C133.87695361 279.0376229 122.5748468 283.50476807 110.453125 283.2734375 C96.02279704 281.66496145 83.60222317 275.07197596 74.19921875 264.109375 C66.73076253 253.55006567 64.07019505 241.82815641 65 229 C65.97900243 224.20709242 67.45527176 219.63418471 69 215 C68.19833411 212.77855581 68.19833411 212.77855581 66.859375 210.4140625 C66.364375 209.48078125 65.869375 208.5475 65.359375 207.5859375 C64.82828125 206.60882812 64.2971875 205.63171875 63.75 204.625 C62.74449233 202.74234734 61.73929926 200.85952664 60.734375 198.9765625 C59.50203125 196.67429687 58.2696875 194.37203125 57 192 C53.37 185.07 49.74 178.14 46 171 C-23.96 171 -93.92 171 -166 171 C-166.66 173.31 -167.32 175.62 -168 178 C-169.13777712 180.50474675 -170.30186285 182.9354251 -171.5625 185.375 C-171.90676025 186.05183838 -172.25102051 186.72867676 -172.60571289 187.42602539 C-173.72785332 189.62228276 -174.86178404 191.81203291 -176 194 C-176.40831055 194.7852002 -176.81662109 195.57040039 -177.23730469 196.37939453 C-178.46585803 198.73467948 -179.69978569 201.08701731 -180.9375 203.4375 C-181.32687744 204.17726074 -181.71625488 204.91702148 -182.11743164 205.67919922 C-184.87740513 210.87740513 -184.87740513 210.87740513 -186 212 C-186.26176528 216.10098937 -185.93022032 219.56453181 -185 223.5625 C-182.29098596 236.49902359 -183.68170465 248.60610303 -190.875 259.8125 C-191.89667998 261.22302833 -192.9375681 262.61990631 -194 264 C-194.45117188 264.61488281 -194.90234375 265.22976563 -195.3671875 265.86328125 C-201.87069175 274.14881915 -211.54871377 280.36698653 -222 282 C-236.04069912 282.99090855 -246.75171947 282.1886039 -257.90234375 272.90625 C-267.63319384 264.06331733 -273.19048576 253.37912899 -274.21875 240.1953125 C-274.62484928 227.16629393 -271.09577126 215.36967165 -262.73828125 205.265625 C-251.61921546 193.46580008 -239.75895698 190.83056916 -224 190 C-223.67386719 189.18015625 -223.34773438 188.3603125 -223.01171875 187.515625 C-222.57472656 186.43796875 -222.13773437 185.3603125 -221.6875 184.25 C-221.25824219 183.18265625 -220.82898438 182.1153125 -220.38671875 181.015625 C-219.13979812 178.30401168 -217.81320264 176.33807708 -216 174 C-215.15186887 172.39330935 -214.34370004 170.76527673 -213.5625 169.125 C-210.71362222 163.32948883 -207.66933638 157.66104125 -204.5625 152 C-194.09111986 132.89597899 -183.82754058 113.68460453 -173.78515625 94.3515625 C-171.0878087 89.15980264 -168.35837482 83.98535502 -165.625 78.8125 C-163.0094527 73.85830387 -160.42399547 68.89567716 -157.9375 63.875 C-147.17941562 42.2089972 -135.12050552 21.31709576 -122 1 C-119.50625197 1.9752336 -117.05003136 2.9765478 -114.625 4.11328125 C-104.82706806 8.5894198 -94.48172903 10.70951537 -84 13 C-82.89137495 16.35512166 -82.93475346 16.85328159 -84.4765625 20.3203125 C-85.1810581 21.59505013 -85.89794126 22.86299538 -86.625 24.125 C-87.38117605 25.48644213 -88.13638645 26.84842104 -88.890625 28.2109375 C-89.25865234 28.86803711 -89.62667969 29.52513672 -90.00585938 30.20214844 C-91.19573672 32.35397966 -92.29734319 34.54002262 -93.375 36.75 C-98.45509998 47.01079599 -103.88000726 57.10544481 -109.33984375 67.16796875 C-115.6099502 78.72653806 -121.77031884 90.31274685 -127.56591797 102.11791992 C-132.19540473 111.52108498 -137.10943982 120.70793565 -142 130 C-87.22 130 -32.44 130 24 130 C21.17269771 124.34539541 18.50196248 119.00765034 15.3125 113.625 C12.05141918 108.02832247 9.1102139 102.3105713 6.25 96.5 C2.23687761 88.35643064 -2.01721779 80.37513544 -6.39746094 72.42382812 C-10.02332799 65.82840138 -13.53874896 59.18315122 -17 52.5 C-21.10616947 44.57965232 -25.28930159 36.70658829 -29.5625 28.875 C-30.06330078 27.95654297 -30.56410156 27.03808594 -31.08007812 26.09179688 C-32.94396256 22.68873763 -34.80714502 19.31364525 -36.83984375 16.0078125 C-38 14 -38 14 -38 12 C-37.23558594 11.90203125 -36.47117187 11.8040625 -35.68359375 11.703125 C-16.44570214 9.38391532 -16.44570214 9.38391532 0 0 Z " fill="#FAFCFC" transform="translate(564,465)"/>
<path d="M0 0 C15.13239727 10.17448933 26.88167529 25.31251558 31.37890625 43.1015625 C34.81253082 64.65349532 30.09591837 84.72113522 17.32495117 102.33911133 C6.56629394 116.49326819 -7.21150922 125.78044468 -24.69140625 129.5859375 C-45.40678886 132.1784175 -65.13730082 129.3332487 -82 116.375 C-83.33817053 115.25575811 -84.6721362 114.13145062 -86 113 C-87.485 111.9171875 -87.485 111.9171875 -89 110.8125 C-99.02796456 102.32085313 -105.53744911 89.48682416 -109 77 C-109.309375 75.89978516 -109.309375 75.89978516 -109.625 74.77734375 C-112.0600703 64.6481277 -112.30799271 52.92397812 -109 43 C-108.76667969 42.12601562 -108.53335937 41.25203125 -108.29296875 40.3515625 C-103.20605608 22.65189377 -89.73548311 6.40818458 -73.75 -2.6875 C-49.71613838 -15.22216706 -23.23364228 -13.92876835 0 0 Z " fill="#223A44" transform="translate(544,275)"/>
<path d="M0 0 C9.10233721 7.27368176 14.70554573 16.74995313 16.875 28.1875 C18.33512549 41.26592464 16.53915374 52.04641593 8.6875 62.875 C-0.02412096 73.29106854 -9.78358909 81.20694726 -23.66796875 82.5234375 C-36.88665199 82.66511685 -47.72977854 79.58783638 -58.125 71.1875 C-64.59886625 64.71363375 -68.91924618 57.72719715 -72.125 49.1875 C-72.558125 48.07375 -72.99125 46.96 -73.4375 45.8125 C-75.92479372 32.69767854 -73.56168651 20.25084459 -66.125 9.1875 C-59.45439205 -0.38026208 -49.52097268 -6.03142392 -38.17578125 -8.37109375 C-24.50371864 -10.3492539 -11.45668633 -7.892038 0 0 Z " fill="#F9FBFC" transform="translate(533.125,703.8125)"/>
<path d="M0 0 C0.83402344 -0.01224609 1.66804687 -0.02449219 2.52734375 -0.03710938 C15.98931594 -0.06880947 26.59559283 5.86645208 36.03515625 15.1328125 C44.80061376 24.43234436 46.31578451 35.3638994 46.08984375 47.55859375 C45.51882055 59.19467239 38.77140746 68.77966542 30.375 76.4375 C18.85621289 85.77213786 7.11715667 86.45054674 -7.25 85.1875 C-19.22934036 82.94034098 -29.32007375 74.96047292 -36.25 65.1875 C-40.13295995 57.46002524 -42.43011312 50.58014747 -42.4375 41.9375 C-42.44974609 41.19886719 -42.46199219 40.46023438 -42.47460938 39.69921875 C-42.50487178 28.26002889 -37.56238675 20.794058 -29.8515625 12.65625 C-20.89051489 4.1757633 -12.23817229 0.00928541 0 0 Z " fill="#F8FBFB" transform="translate(672.25,369.8125)"/>
<path d="M0 0 C7.99534951 5.6837148 15.50945724 12.14540864 20 21 C20.40734375 21.7425 20.8146875 22.485 21.234375 23.25 C25.64149014 32.42645893 25.26593964 42.82937708 22.375 52.4375 C20.35479055 57.71406106 17.75353558 61.80694035 14 66 C13.18982422 66.99966797 13.18982422 66.99966797 12.36328125 68.01953125 C5.41939251 75.89730525 -3.78383939 80.70298495 -14.21875 81.609375 C-27.20691431 82.18820549 -37.27327951 80.31201173 -47.375 71.6875 C-57.33448762 62.03175277 -61.93029262 52.99231231 -62.29248047 38.98608398 C-62.40093607 27.21071539 -60.17581121 17.89166565 -52 9 C-39.17536142 -3.98428138 -16.51143561 -10.02056996 0 0 Z " fill="#F9FBFC" transform="translate(355,374)"/>
<path d="M0 0 C1.15242187 0.74636719 1.15242187 0.74636719 2.328125 1.5078125 C9.36145413 6.5149839 15.23455785 13.34933346 17 22 C17.96597984 34.22174489 14.94516116 43.34560501 7.4375 53.01171875 C1.75529418 59.30858626 -6.75664767 63.43043102 -15.2265625 64.203125 C-26.55128297 64.42445504 -35.18772266 60.89881288 -43.71875 53.51171875 C-50.02895151 47.02444526 -53.22880218 37.74179326 -53.5625 28.8125 C-53.11793186 19.19712628 -48.86667473 10.40905125 -41.8125 3.875 C-30.77300493 -5.18975781 -12.27151029 -8.03831488 0 0 Z " fill="#68C1CA" transform="translate(523,305)"/>
<path d="M0 0 C4.34170523 2.3836813 8.2064129 4.78119883 12 8 C11.67 8.66 11.34 9.32 11 10 C10.74718726 11.546534 10.53762882 13.10027409 10.3515625 14.65625 C10.17367187 16.06777344 10.17367187 16.06777344 9.9921875 17.5078125 C9.75128922 19.4708772 9.51418032 21.43441141 9.28125 23.3984375 C7.21819003 39.59565305 0.85907321 53.75096542 -10 66 C-10.66 66 -11.32 66 -12 66 C-12 66.66 -12 67.32 -12 68 C-12.66 68 -13.32 68 -14 68 C-14 68.66 -14 69.32 -14 70 C-14.66 70 -15.32 70 -16 70 C-16.22816406 70.58910156 -16.45632813 71.17820312 -16.69140625 71.78515625 C-22.18653056 81.08585918 -38.48812309 85.8441107 -48.39453125 88.421875 C-65.72208212 92.2666689 -83.90288193 89.21709652 -99 80 C-110.25421465 72.23847265 -119.37458911 61.52845747 -125 49 C-124.67 48.01 -124.34 47.02 -124 46 C-123.27296875 46.43570313 -122.5459375 46.87140625 -121.796875 47.3203125 C-110.40327901 54.06882705 -100.13779052 59.62837288 -87 62 C-85.99453125 62.18304687 -84.9890625 62.36609375 -83.953125 62.5546875 C-66.80485173 65.14053823 -46.5946505 59.19833844 -32.375 49.375 C-30.90589885 48.26409814 -29.4456256 47.14128337 -28 46 C-26.6696875 45.0409375 -26.6696875 45.0409375 -25.3125 44.0625 C-13.21787562 33.27540258 -2.31904006 16.2332804 0 0 Z " fill="#597481" transform="translate(409,714)"/>
<path d="M0 0 C3.24792572 3.0371408 5.05290803 6.58362209 7.0625 10.5 C7.86457472 12.03906699 8.66665838 13.57812932 9.46875 15.1171875 C9.88382813 15.91866211 10.29890625 16.72013672 10.7265625 17.54589844 C12.40456693 20.77966003 14.10096173 24.00356852 15.79907227 27.22680664 C16.63930811 28.82171229 17.47834444 30.41725047 18.31616211 32.01342773 C20.32701831 35.84191776 22.35126975 39.66193941 24.41015625 43.46484375 C24.78454834 44.15819824 25.15894043 44.85155273 25.54467773 45.56591797 C26.24762947 46.86506808 26.95399746 48.16237744 27.66430664 49.45751953 C30 53.77846098 30 53.77846098 30 56 C10.2 56 -9.6 56 -30 56 C-28.57652341 52.44130853 -27.13825107 49.1953629 -25.3828125 45.81640625 C-24.86380371 44.81633545 -24.34479492 43.81626465 -23.81005859 42.78588867 C-23.25398926 41.72217041 -22.69791992 40.65845215 -22.125 39.5625 C-21.55217285 38.46462158 -20.9793457 37.36674316 -20.38916016 36.2355957 C-16.43890792 28.69001787 -12.43781639 21.17306544 -8.375 13.6875 C-7.87887207 12.76976807 -7.38274414 11.85203613 -6.87158203 10.90649414 C-6.17331299 9.62826782 -6.17331299 9.62826782 -5.4609375 8.32421875 C-5.05665527 7.58260498 -4.65237305 6.84099121 -4.23583984 6.0769043 C-2.95725417 3.92816303 -1.53471805 1.97197631 0 0 Z " fill="#567684" transform="translate(503,507)"/>
<path d="M0 0 C1.98 0 3.96 0 6 0 C5.67 4.95 5.34 9.9 5 15 C7.31 15.33 9.62 15.66 12 16 C12.02578125 15.41992188 12.0515625 14.83984375 12.078125 14.2421875 C12.46710666 8.8848492 13.09731732 5.00538486 17 1 C20.6875 0.5625 20.6875 0.5625 24 1 C24.495 1.495 24.495 1.495 25 2 C24.53343967 6.04352289 23.84439338 10.01928836 23 14 C25.475 14.495 25.475 14.495 28 15 C28.125 22.75 28.125 22.75 27 25 C21.25 25.125 21.25 25.125 19 24 C19.495 24.99 19.495 24.99 20 26 C20.04022391 28.3329866 20.04320247 30.66706666 20 33 C21.65 33.33 23.3 33.66 25 34 C25.6875 36.3125 25.6875 36.3125 26 39 C25 40.8125 25 40.8125 23 42 C19.3125 42.1875 19.3125 42.1875 16 42 C16.01160156 42.78246094 16.02320313 43.56492187 16.03515625 44.37109375 C16.04417969 45.38300781 16.05320312 46.39492188 16.0625 47.4375 C16.07410156 48.44683594 16.08570313 49.45617187 16.09765625 50.49609375 C16 53 16 53 15 54 C11.5 54.125 11.5 54.125 8 54 C7 53 7 53 6.90234375 50.49609375 C6.91394531 49.48675781 6.92554688 48.47742188 6.9375 47.4375 C6.94652344 46.42558594 6.95554687 45.41367187 6.96484375 44.37109375 C6.97644531 43.58863281 6.98804688 42.80617188 7 42 C4.03 42 1.06 42 -2 42 C-1.98839844 42.85464844 -1.97679687 43.70929688 -1.96484375 44.58984375 C-1.95582031 45.69457031 -1.94679688 46.79929687 -1.9375 47.9375 C-1.92589844 49.03964844 -1.91429687 50.14179688 -1.90234375 51.27734375 C-2 54 -2 54 -3 55 C-4.8125 55.1328125 -4.8125 55.1328125 -7 55.125 C-7.721875 55.12757813 -8.44375 55.13015625 -9.1875 55.1328125 C-11 55 -11 55 -12 54 C-11.9140625 52.00390625 -11.9140625 52.00390625 -11.625 49.5625 C-11.53476562 48.75941406 -11.44453125 47.95632813 -11.3515625 47.12890625 C-11 45 -11 45 -10 43 C-11.670625 42.814375 -11.670625 42.814375 -13.375 42.625 C-17 42 -17 42 -19 40 C-19.125 37.375 -19.125 37.375 -19 35 C-18.37351562 34.89042969 -17.74703125 34.78085937 -17.1015625 34.66796875 C-16.28429687 34.50941406 -15.46703125 34.35085938 -14.625 34.1875 C-13.81289063 34.03667969 -13.00078125 33.88585937 -12.1640625 33.73046875 C-9.64179359 33.12455058 -9.64179359 33.12455058 -8 30 C-7.29187186 27.67891331 -6.61975848 25.34622853 -6 23 C-8.97 23.33 -11.94 23.66 -15 24 C-17 18.25 -17 18.25 -17 16 C-13.04 16 -9.08 16 -5 16 C-4.896875 14.453125 -4.79375 12.90625 -4.6875 11.3125 C-4.23931174 6.72668966 -3.35144125 3.35144125 0 0 Z " fill="#F4FAFB" transform="translate(315,278)"/>
<path d="M0 0 C4.0781436 1.42846046 6.76287729 4.34995768 9 8 C9.87757548 10.63272644 10.15352643 12.31076849 10.24609375 15.01953125 C10.27896484 15.79490234 10.31183594 16.57027344 10.34570312 17.36914062 C10.40645602 18.9862018 10.46379902 20.60339501 10.51757812 22.22070312 C10.72049161 26.84942773 11.36363135 30.61663498 13 35 C13.125 37.875 13.125 37.875 13 40 C5.52908757 41.34721372 5.52908757 41.34721372 3 39.6875 C2 38 2 38 2 36 C0.865625 36.66 -0.26875 37.32 -1.4375 38 C-6.00484367 40.26346235 -9.96590212 40.93051717 -15 40 C-19.11037862 37.90744361 -21.26380059 36.23198607 -23 32 C-23.64205946 28.87493185 -23.72238384 26.11595419 -23 23 C-20.26697263 19.47775617 -17.20464184 17.40154728 -13 16 C-10.93854893 15.931009 -8.87498599 15.91532273 -6.8125 15.9375 C-5.18248047 15.95103516 -5.18248047 15.95103516 -3.51953125 15.96484375 C-2.68808594 15.97644531 -1.85664062 15.98804688 -1 16 C-1.66 14.02 -2.32 12.04 -3 10 C-8.61 9.67 -14.22 9.34 -20 9 C-20.33 7.35 -20.66 5.7 -21 4 C-13.81824764 -0.34685011 -8.45054174 -0.70180836 0 0 Z " fill="#F5FAFB" transform="translate(668,511)"/>
<path d="M0 0 C3.49654345 2.41140928 4.13430001 6.02807799 5 10 C5.32884833 12.7677225 5.45697753 15.52828177 5.5625 18.3125 C5.63383895 19.80736779 5.7067507 21.30216138 5.78125 22.796875 C5.83345703 23.87291992 5.83345703 23.87291992 5.88671875 24.97070312 C6.1114637 28.99673762 6.55482634 32.99343708 7 37 C5.3973218 37.10824843 3.79254252 37.18570645 2.1875 37.25 C1.29417969 37.29640625 0.40085937 37.3428125 -0.51953125 37.390625 C-3 37 -3 37 -4.82421875 34.984375 C-5.21222656 34.32953125 -5.60023438 33.6746875 -6 33 C-6.55816406 33.4846875 -7.11632812 33.969375 -7.69140625 34.46875 C-11.55225306 37.0295824 -15.53187338 36.7893449 -20 36 C-23.40249613 33.37724257 -26.50805664 30.28557757 -27.44140625 25.94921875 C-27.62935618 22.43879918 -27.7528712 19.99626517 -25.57421875 17.11328125 C-20.60168928 12.71573377 -16.83628834 11.85909181 -10.25 11.9375 C-9.26515625 11.94652344 -8.2803125 11.95554687 -7.265625 11.96484375 C-6.14414062 11.98224609 -6.14414062 11.98224609 -5 12 C-5.33 10.35 -5.66 8.7 -6 7 C-7.20398438 7.02320313 -8.40796875 7.04640625 -9.6484375 7.0703125 C-11.22395215 7.08906863 -12.79947348 7.10726899 -14.375 7.125 C-15.1690625 7.14175781 -15.963125 7.15851563 -16.78125 7.17578125 C-18.85492015 7.19335473 -20.92883241 7.10335168 -23 7 C-25 5 -25 5 -25.125 2.375 C-25.08375 1.59125 -25.0425 0.8075 -25 0 C-16.07085175 -3.54632838 -8.66657759 -4.6799519 0 0 Z " fill="#F6FAFC" transform="translate(692,294)"/>
<path d="M0 0 C4.88062876 1.63875126 8.16687462 4.75031193 11 9 C13.00237036 15.00711108 12.49636393 19.57016105 9.9375 25.25 C7.28187433 30.09875474 5.18763091 32.06562915 0 34 C-6.30731349 34.8009287 -10.74862558 33.60594377 -16 30 C-18.375 27.5 -18.375 27.5 -20 25 C-20.4125 24.401875 -20.825 23.80375 -21.25 23.1875 C-22.91785687 18.32291745 -22.33460074 14.09674688 -20.875 9.3125 C-15.99370026 0.68887045 -9.41676535 -0.9364739 0 0 Z " fill="#1F3642" transform="translate(680,685)"/>
<path d="M0 0 C4.03479394 2.54829091 6.4487142 5.77973634 7.93359375 10.234375 C8.4712009 16.57813937 7.61507171 20.96547076 3.93359375 26.234375 C-0.1545316 30.54665343 -3.95379566 32.37394551 -9.87890625 32.546875 C-14.76823913 32.46870253 -17.39163866 31.65276345 -21.06640625 28.234375 C-25.57339329 23.15355407 -26.83557594 18.54153785 -26.48046875 11.78515625 C-25.62953922 6.54310926 -23.1374588 4.10033238 -19.12890625 0.859375 C-13.57071784 -2.00393418 -5.82578961 -2.15851562 0 0 Z " fill="#1F343F" transform="translate(514.06640625,724.765625)"/>
<path d="M0 0 C3.54399678 2.41567302 6.29380388 4.99715548 7.828125 9.05859375 C8.53738949 15.01241962 8.39060036 20.04886278 4.828125 25.05859375 C1.72341435 28.79489995 -1.08077452 31.6491475 -5.96484375 32.60546875 C-11.08039395 32.74354028 -15.14248282 32.47747197 -19.171875 29.05859375 C-19.89375 28.46046875 -20.615625 27.86234375 -21.359375 27.24609375 C-25.05114894 22.79050451 -25.62998413 17.85525573 -25.48828125 12.234375 C-24.80655023 7.54642215 -21.99774794 4.80389372 -18.609375 1.74609375 C-13.40549526 -1.85659222 -5.85571247 -2.53817753 0 0 Z " fill="#1E3540" transform="translate(343.171875,685.94140625)"/>
<path d="M0 0 C4.14327184 2.25631664 6.69711307 5.08172615 8.8125 9.3125 C9.36963132 15.26951945 9.33430186 20.26458399 5.8125 25.3125 C2.98742205 28.56133965 1.46391114 30.02605614 -2.77734375 30.76171875 C-9.08318081 31.01256824 -13.23147458 30.25709166 -18.1875 26.3125 C-22.09237916 21.05822834 -23.93693854 15.84332154 -23.1875 9.3125 C-18.27048237 0.0399235 -10.12554435 -4.62130595 0 0 Z " fill="#1D333E" transform="translate(681.1875,397.6875)"/>
<path d="M0 0 C3.55140613 3.13359364 7.75472358 6.89457832 8.36328125 11.79296875 C8.54816864 17.44663044 7.91163493 21.52487773 4.125 25.875 C-0.78208589 29.78063979 -4.9652714 30.63114341 -11.21875 30.390625 C-16.85709466 29.2961228 -19.63819034 25.57561328 -22.875 21.125 C-24.70286638 15.18443426 -23.92380022 9.9351433 -21.125 4.4375 C-15.5042937 -1.96385995 -7.96775129 -3.11781572 0 0 Z " fill="#1D333F" transform="translate(342.875,398.125)"/>
<path d="M0 0 C7.94004657 14.83940742 15.19203213 29.31299123 10.375 46.375 C5.70255159 60.22782239 5.70255159 60.22782239 2 65 C-1.80959699 66.15965711 -3.27954721 66.3602264 -6.875 64.5625 C-7.57625 64.046875 -8.2775 63.53125 -9 63 C-8.70109863 62.42362793 -8.40219727 61.84725586 -8.09423828 61.25341797 C-1.73941662 48.16662547 1.53474059 33.89365296 -2.5625 19.6875 C-4.42654164 14.62892323 -7.07449751 10.89209343 -10.70703125 6.9375 C-12 5 -12 5 -11.69921875 2.75 C-11.46847656 2.1725 -11.23773437 1.595 -11 1 C-7.26616906 0.30533378 -3.79269127 -0.05168915 0 0 Z " fill="#F4FAFB" transform="translate(746,494)"/>
<path d="M0 0 C7.42857143 -0.28571429 7.42857143 -0.28571429 11 2 C10.67133096 5.50580307 9.86462124 7.18819789 7.77734375 10.08984375 C3.87554589 16.20715808 2.30472026 23.24105469 0.40527344 30.17260742 C-0.25032363 32.56368032 -0.92426287 34.94897813 -1.6015625 37.33398438 C-2.03232535 38.8694904 -2.46204872 40.4052885 -2.890625 41.94140625 C-3.08851624 42.64576309 -3.28640747 43.35011993 -3.49029541 44.07582092 C-5.31741353 50.77260385 -6.1415429 57.06439774 -6 64 C-9.05079478 64.28781083 -11.95706395 64.41543631 -15 64 C-17.80332952 61.28161986 -17.96746011 59.43238616 -18.2578125 55.57421875 C-18.18151087 49.76069804 -16.43458245 44.35402598 -14.8125 38.8125 C-14.49369873 37.70205322 -14.17489746 36.59160645 -13.84643555 35.44750977 C-10.75068915 24.83452242 -7.08990373 14.82877961 -2 5 C-1.30959426 3.34302621 -0.63028587 1.68076231 0 0 Z " fill="#F6FBFC" transform="translate(275,495)"/>
<path d="M0 0 C3.31706967 2.09692759 6.22874044 4.45748089 8 8 C8.49813129 13.45494588 8.71117027 18.37023481 6.5 23.4375 C3.32258452 26.69435087 -0.04146267 28.8040767 -4 31 C-4.68449219 31.39574219 -5.36898437 31.79148437 -6.07421875 32.19921875 C-7.70943116 33.1445241 -9.35377819 34.07400023 -11 35 C-11.185625 34.319375 -11.37125 33.63875 -11.5625 32.9375 C-13.30172285 29.38343592 -15.57896157 27.23469508 -18.44140625 24.55078125 C-20.87684162 22.12755358 -21.00418775 20.96021641 -21.375 17.4375 C-21.30762972 12.15374497 -19.04881743 8.20869363 -16 4 C-10.69461614 -0.9352408 -6.97931376 -1.88999361 0 0 Z " fill="#F7FAFA" transform="translate(575,668)"/>
<path d="M0 0 C3.44202965 3.08679905 5.3177741 6.16711554 7.34765625 10.3046875 C7.64562607 10.90628693 7.94359589 11.50788635 8.25059509 12.12771606 C9.19553155 14.03982751 10.12918132 15.95719544 11.0625 17.875 C11.6926124 19.15531581 12.32346518 20.43526753 12.95507812 21.71484375 C14.12059145 24.07837803 15.28085199 26.44421975 16.43774414 28.81201172 C17.94246113 31.88258438 19.47077865 34.9415573 21 38 C7.8 38 -5.4 38 -19 38 C-17.02 35.525 -17.02 35.525 -15 33 C-13.90147246 31.21752652 -13.90147246 31.21752652 -13.0703125 29.46875 C-12.75263916 28.82905273 -12.43496582 28.18935547 -12.10766602 27.53027344 C-11.78338623 26.8602832 -11.45910645 26.19029297 -11.125 25.5 C-10.78202881 24.80165039 -10.43905762 24.10330078 -10.08569336 23.38378906 C-9.04779065 21.26022517 -8.02140572 19.13154264 -7 17 C-6.69175293 16.35740234 -6.38350586 15.71480469 -6.06591797 15.05273438 C-2.4175147 7.7509521 -2.4175147 7.7509521 0 0 Z " fill="#718F9C" transform="translate(512,524)"/>
<path d="M0 0 C4.98986197 2.63084162 7.87133991 6.85105063 10.37109375 11.77734375 C11.43803099 15.54807227 12.02929078 19.13669785 10.05932617 22.70288086 C8.7535278 24.41065881 7.36366389 25.94962983 5.875 27.5 C5.400625 28.04914062 4.92625 28.59828125 4.4375 29.1640625 C2.9921875 30.71875 2.9921875 30.71875 0 33 C-5.59139503 32.9105927 -9.57615875 30.48899828 -13.453125 26.5078125 C-17.58718288 21.73226288 -18.51025881 17.81075495 -18.4921875 11.6484375 C-17.6230304 6.97154454 -14.50448131 4.03668855 -11 1 C-7.47056658 -0.76471671 -3.84354094 -0.64899134 0 0 Z " fill="#F6F9FB" transform="translate(443,667)"/>
<path d="M0 0 C0.495 0.268125 0.99 0.53625 1.5 0.8125 C4.36637383 2.17402757 7.29199242 3.19429797 10.29296875 4.21875 C12 5 12 5 13 7 C13.9075 7.0825 14.815 7.165 15.75 7.25 C19.59259054 8.13675166 20.20288935 9.48862857 22.55029297 12.46289062 C24.98436188 15.04370872 27.97063504 16.24010098 31.1875 17.625 C37.63037189 20.42682326 37.63037189 20.42682326 39.42578125 23.2109375 C39.71001953 24.09652344 39.71001953 24.09652344 40 25 C34.59764745 29.20182976 26.95840282 33 20 33 C20 34.32 20 35.64 20 37 C17.36 37.66 14.72 38.32 12 39 C8.91524393 33.82557047 6.94325098 29.98386663 6.7890625 23.8828125 C6.76070312 23.11066406 6.73234375 22.33851563 6.703125 21.54296875 C6.6513014 19.93902832 6.60695365 18.33482782 6.5703125 16.73046875 C6.29939409 9.94622013 4.29446148 5.31695231 0 0 Z " fill="#2F4A56" transform="translate(671,512)"/>
<path d="M0 0 C3.63 0 7.26 0 11 0 C12.31608129 3.08184868 13.62798422 6.16536283 14.9375 9.25 C15.49727539 10.55904297 15.49727539 10.55904297 16.06835938 11.89453125 C16.60493164 13.16103516 16.60493164 13.16103516 17.15234375 14.453125 C17.48226318 15.22817383 17.81218262 16.00322266 18.15209961 16.80175781 C21.730779 26.07973916 21.39834474 36.57869241 17.640625 45.69238281 C13.09229275 55.80962597 13.09229275 55.80962597 10 58 C6.3125 58.1875 6.3125 58.1875 3 58 C2.10715975 54.99338737 1.83334357 53.43967488 2.9609375 50.46484375 C3.42757812 49.63082031 3.89421875 48.79679687 4.375 47.9375 C9.13023603 39.31697434 9.47301014 29.33344305 6.875 19.8125 C5.24199481 15.01653815 2.74761038 10.75443028 0.109375 6.4453125 C-1 4 -1 4 0 0 Z " fill="#F6FBFC" transform="translate(706,277)"/>
<path d="M0 0 C0.84759261 1.89860746 1.69415672 3.79768166 2.53515625 5.69921875 C4.41836633 8.65711405 6.68387799 10.23687223 9.5 12.3125 C15.25159478 16.75865938 17.62161119 20.89435223 19 28 C19.24208979 30.45062818 19.21901667 32.53606245 19 35 C16.08963706 36.45518147 13.39595074 35.97182664 10.19140625 35.83984375 C7.7053771 35.84066515 7.7053771 35.84066515 5 38 C0.13105183 38.72070489 -4.44570145 38.81279759 -8.625 36 C-9.40875 35.34 -10.1925 34.68 -11 34 C-10.67 31.69 -10.34 29.38 -10 27 C-8.41058594 27.03480469 -8.41058594 27.03480469 -6.7890625 27.0703125 C-5.4010487 27.08906944 -4.0130273 27.10726972 -2.625 27.125 C-1.92632812 27.14175781 -1.22765625 27.15851562 -0.5078125 27.17578125 C1.32897486 27.19344267 3.16601963 27.10303261 5 27 C5.66 26.34 6.32 25.68 7 25 C7 24.01 7 23.02 7 22 C6.11957031 21.54109375 5.23914063 21.0821875 4.33203125 20.609375 C3.17058594 19.99578125 2.00914062 19.3821875 0.8125 18.75 C-0.33605469 18.14671875 -1.48460937 17.5434375 -2.66796875 16.921875 C-10.21581549 12.56836903 -10.21581549 12.56836903 -12 9 C-12.3125 6.0625 -12.3125 6.0625 -12 3 C-8.53109398 -0.59279552 -4.69980941 -1.74963202 0 0 Z " fill="#F3F8F9" transform="translate(306,512)"/>
<path d="M0 0 C0.99 0 1.98 0 3 0 C3.2475 1.485 3.2475 1.485 3.5 3 C4.74105716 7.60964088 7.86538432 10.00895839 11.41796875 13.0078125 C13 15 13 15 12.9453125 17.453125 C11.88683199 20.30489895 10.58945741 22.25468048 8.6875 24.625 C8.09324219 25.38039063 7.49898437 26.13578125 6.88671875 26.9140625 C2.64618435 31.60235519 -0.96501592 32.69242012 -7 34 C-7.5775 33.113125 -8.155 32.22625 -8.75 31.3125 C-12.28934276 26.05298715 -15.51492808 22.36583958 -21 19 C-20.59007812 18.45730469 -20.18015625 17.91460938 -19.7578125 17.35546875 C-19.21898437 16.64003906 -18.68015625 15.92460938 -18.125 15.1875 C-17.59132813 14.47980469 -17.05765625 13.77210938 -16.5078125 13.04296875 C-15.29185219 11.39543703 -14.13583859 9.70375789 -13 8 C-11.34183216 7.31246699 -9.67540664 6.64438717 -8 6 C-7.67 5.34 -7.34 4.68 -7 4 C-5 3.33333333 -3 2.66666667 -1 2 C-0.67 1.34 -0.34 0.68 0 0 Z " fill="#5A7681" transform="translate(551,684)"/>
<path d="M0 0 C0.99 0.33 1.98 0.66 3 1 C3.33 3.31 3.66 5.62 4 8 C4.69867187 8.26941406 5.39734375 8.53882813 6.1171875 8.81640625 C9.1861493 10.07642715 12.1488658 11.47180985 15.125 12.9375 C16.15882813 13.44152344 17.19265625 13.94554687 18.2578125 14.46484375 C20.67061773 15.81560223 22.30694785 16.84107444 24 19 C24.70682719 22.97590297 24.26427158 24.5908053 22.0625 28 C17.99568631 32.41639653 12.69065064 36.10311645 7 38 C5.10529184 38.0685495 3.2083166 38.08480372 1.3125 38.0625 C0.31863281 38.05347656 -0.67523437 38.04445313 -1.69921875 38.03515625 C-2.83810547 38.01775391 -2.83810547 38.01775391 -4 38 C-4.66 36.35 -5.32 34.7 -6 33 C-4.87980469 32.59007812 -3.75960937 32.18015625 -2.60546875 31.7578125 C-1.132737 31.21374599 0.33991511 30.66946389 1.8125 30.125 C2.55048828 29.85558594 3.28847656 29.58617187 4.04882812 29.30859375 C4.76103516 29.04433594 5.47324219 28.78007813 6.20703125 28.5078125 C7.18893433 28.14647217 7.18893433 28.14647217 8.19067383 27.77783203 C10.27895937 26.94473832 10.27895937 26.94473832 13 25 C11.9462404 21.70880565 10.94997116 20.97141209 7.8828125 19.21875 C6.63584946 18.63365694 5.38294999 18.06108156 4.125 17.5 C-0.20015152 15.54699344 -3.95382068 13.76964691 -7 10 C-7.14812945 7.11147578 -6.61701345 5.68863108 -4.6875 3.53515625 C-3.125 2.125 -3.125 2.125 0 0 Z " fill="#F1F7F9" transform="translate(697,512)"/>
<path d="M0 0 C1.625 1.8984375 1.625 1.8984375 3 4.375 C3.50015625 5.27476562 4.0003125 6.17453125 4.515625 7.1015625 C6.85292021 11.66543893 9.00929684 16.27489703 11 21 C11.433125 22.010625 11.86625 23.02125 12.3125 24.0625 C13.31016533 28.32525188 13.53242533 32.64663996 13 37 C11 39 11 39 8.43359375 39.23046875 C7.44488281 39.21628906 6.45617187 39.20210937 5.4375 39.1875 C4.44621094 39.18105469 3.45492188 39.17460938 2.43359375 39.16796875 C0 39 0 39 -1 38 C-0.9190344 36.34446647 -0.83453792 34.68903159 -0.73242188 33.03466797 C-0.30864416 24.76137125 -1.72969614 18.77434765 -5.51025391 11.40600586 C-7.55520337 7.38955009 -8.38875538 4.51233928 -8 0 C-4.63671924 -1.12109359 -3.32151894 -1.1106329 0 0 Z " fill="#F5F7F9" transform="translate(349,511)"/>
<path d="M0 0 C0.99 0 1.98 0 3 0 C6.125 6.625 6.125 6.625 5 10 C2.5146477 11.44091258 0.08849108 12.71199856 -2.5 13.9375 C-3.22670898 14.29013916 -3.95341797 14.64277832 -4.70214844 15.00610352 C-6.7957136 16.01668545 -8.89580985 17.01176343 -11 18 C-12.44632813 18.680625 -12.44632813 18.680625 -13.921875 19.375 C-19.89453692 22.1007786 -24.33596259 23.12815457 -31 23 C-31.33 23.66 -31.66 24.32 -32 25 C-33.00508801 23.21118264 -34.00392736 21.41885304 -35 19.625 C-35.8353125 18.12839844 -35.8353125 18.12839844 -36.6875 16.6015625 C-38 14 -38 14 -38 12 C-37.23558594 11.90203125 -36.47117187 11.8040625 -35.68359375 11.703125 C-16.44570214 9.38391532 -16.44570214 9.38391532 0 0 Z " fill="#C1D7E0" transform="translate(564,465)"/>
<path d="M0 0 C2.49374803 0.9752336 4.94996864 1.9765478 7.375 3.11328125 C17.17293194 7.5894198 27.51827097 9.70951537 38 12 C38.96032821 15.04341404 39.11976196 15.72427792 37.78515625 18.796875 C37.21667969 19.77140625 36.64820313 20.7459375 36.0625 21.75 C35.49660156 22.73484375 34.93070312 23.7196875 34.34765625 24.734375 C33.90292969 25.48203125 33.45820313 26.2296875 33 27 C32.505 25.515 32.505 25.515 32 24 C31.21625 23.9175 30.4325 23.835 29.625 23.75 C16.93161466 21.12378234 6.45638995 13.59671814 -3 5 C-2.01 3.35 -1.02 1.7 0 0 Z " fill="#B7D1DB" transform="translate(442,466)"/>
<path d="M0 0 C1.66611905 -0.042721 3.33382885 -0.04063832 5 0 C5.33 0.33 5.66 0.66 6 1 C9.6105197 1.23718743 13.21419749 1.39655681 16.83007812 1.51757812 C22.78671875 1.78671875 22.78671875 1.78671875 25 4 C25.125 6.625 25.125 6.625 25 9 C23.82244141 9.03867187 23.82244141 9.03867187 22.62109375 9.078125 C14.86953127 9.49661426 9.6493546 10.3506454 4 16 C3.59952556 18.32275177 3.2602896 20.65739357 3 23 C2.67 23 2.34 23 2 23 C2 21.35 2 19.7 2 18 C1.2575 17.79375 0.515 17.5875 -0.25 17.375 C-3.79231177 15.60384411 -5.02446841 13.36572049 -7 10 C-6.34 9.67 -5.68 9.34 -5 9 C-4.67 8.01 -4.34 7.02 -4 6 C-3.34 6.33 -2.68 6.66 -2 7 C-1.34 4.69 -0.68 2.38 0 0 Z " fill="#30525F" transform="translate(642,518)"/>
<path d="M0 0 C0.66 0 1.32 0 2 0 C2.165 0.763125 2.33 1.52625 2.5 2.3125 C4.77068812 6.38081621 7.62538216 6.65939131 12 8 C11.67 11.63 11.34 15.26 11 19 C13.64 19 16.28 19 19 19 C19.33 15.04 19.66 11.08 20 7 C22.97 7 25.94 7 29 7 C29.02578125 7.75925781 29.0515625 8.51851563 29.078125 9.30078125 C29.13484375 10.29464844 29.1915625 11.28851563 29.25 12.3125 C29.29640625 13.29863281 29.3428125 14.28476562 29.390625 15.30078125 C29.75970238 18.13940092 29.75970238 18.13940092 32.046875 19.85546875 C32.69140625 20.23316406 33.3359375 20.61085938 34 21 C29.12356054 22.26686881 24.31191298 22.14760473 19.3125 22.125 C18.0121582 22.13080078 18.0121582 22.13080078 16.68554688 22.13671875 C15.85732422 22.13542969 15.02910156 22.13414062 14.17578125 22.1328125 C13.42208252 22.13168457 12.66838379 22.13055664 11.8918457 22.12939453 C10 22 10 22 8 21 C7.3671875 18.71484375 7.3671875 18.71484375 6.875 15.9375 C6.70742188 15.01839844 6.53984375 14.09929687 6.3671875 13.15234375 C6.24601562 12.44207031 6.12484375 11.73179687 6 11 C5.01 10.67 4.02 10.34 3 10 C2.6278958 8.67696283 2.29369827 7.34262065 2 6 C1.34 5.67 0.68 5.34 0 5 C0 3.35 0 1.7 0 0 Z " fill="#4B6D7C" transform="translate(293,313)"/>
<path d="M0 0 C56.43 0 112.86 0 171 0 C171 0.33 171 0.66 171 1 C87.84 1.495 87.84 1.495 3 2 C2.67 2.66 2.34 3.32 2 4 C1.34 4 0.68 4 0 4 C0 2.68 0 1.36 0 0 Z " fill="#102429" transform="translate(398,636)"/>
<path d="M0 0 C4.8274799 1.41292095 8.7162359 3.42974154 13 6 C12.42655063 8.86724686 12.1385485 9.8614515 10 12 C5.02040564 12.51999304 -0.15479581 12.29205445 -5 11 C-5 9.35 -5 7.7 -5 6 C-4.360625 5.7525 -3.72125 5.505 -3.0625 5.25 C-0.81258459 4.18437567 -0.81258459 4.18437567 -0.25 1.875 C-0.1675 1.25625 -0.085 0.6375 0 0 Z " fill="#2E586B" transform="translate(301,528)"/>
<path d="M0 0 C2.77141717 -0.08089542 5.54047819 -0.14044062 8.3125 -0.1875 C9.09818359 -0.21263672 9.88386719 -0.23777344 10.69335938 -0.26367188 C11.45068359 -0.27333984 12.20800781 -0.28300781 12.98828125 -0.29296875 C14.03302612 -0.31653442 14.03302612 -0.31653442 15.09887695 -0.34057617 C17.60718396 0.10877381 18.48831511 0.98018574 20 3 C20 3.99 20 4.98 20 6 C18.99839844 6.08636719 17.99679687 6.17273438 16.96484375 6.26171875 C9.48575238 7.01460331 3.71346395 7.70459439 -2 13 C-1.34 8.71 -0.68 4.42 0 0 Z " fill="#193C58" transform="translate(667,300)"/>
<path d="M0 0 C0.66 0 1.32 0 2 0 C2.22395319 3.91918089 1.53520886 6.41784599 0 10 C-0.350625 11.2375 -0.70125 12.475 -1.0625 13.75 C-2 17 -2 17 -3 18 C-3.12375 19.051875 -3.2475 20.10375 -3.375 21.1875 C-4.01547097 25.09437294 -5.24145333 27.48720628 -7 31 C-7.77525109 33.27648982 -8.50510451 35.56897386 -9.1875 37.875 C-9.53167969 39.02742187 -9.87585938 40.17984375 -10.23046875 41.3671875 C-10.48441406 42.23601563 -10.73835938 43.10484375 -11 44 C-13 41 -13 41 -12.66210938 38.5390625 C-12.39205078 37.57742188 -12.12199219 36.61578125 -11.84375 35.625 C-11.40482422 34.02011719 -11.40482422 34.02011719 -10.95703125 32.3828125 C-10.48330078 30.70832031 -10.48330078 30.70832031 -10 29 C-9.42593954 26.8336361 -8.85301688 24.66697037 -8.28125 22.5 C-7.68926117 20.33285147 -7.09550577 18.16618475 -6.5 16 C-6.20480469 14.89527344 -5.90960938 13.79054688 -5.60546875 12.65234375 C-5.16654297 11.06099609 -5.16654297 11.06099609 -4.71875 9.4375 C-4.46029297 8.48746094 -4.20183594 7.53742187 -3.93554688 6.55859375 C-2.96334018 3.89974038 -1.90690452 2.08606029 0 0 Z " fill="#506A75" transform="translate(282,506)"/>
<path d="M0 0 C2.475 0.495 2.475 0.495 5 1 C5.33 1.99 5.66 2.98 6 4 C6.99 3.67 7.98 3.34 9 3 C10.49774018 2.90774789 11.99942974 2.8699981 13.5 2.875 C14.2734375 2.87242187 15.046875 2.86984375 15.84375 2.8671875 C18 3 18 3 21 4 C21 5.65 21 7.3 21 9 C18.4170535 9.27631521 15.83725557 9.52171274 13.25 9.75 C12.52039063 9.83121094 11.79078125 9.91242187 11.0390625 9.99609375 C7.45356559 10.28945259 5.49821874 10.35947428 2.53125 8.21875 C0.65033932 5.49334881 0.29713654 3.26850189 0 0 Z " fill="#8EA6B0" transform="translate(699,512)"/>
<path d="M0 0 C0.99 0.33 1.98 0.66 3 1 C3.33 2.65 3.66 4.3 4 6 C6.97 6 9.94 6 13 6 C11.25 14.75 11.25 14.75 9 17 C6.8359375 17.1953125 6.8359375 17.1953125 4.375 17.125 C3.55773437 17.10695313 2.74046875 17.08890625 1.8984375 17.0703125 C1.27195312 17.04710937 0.64546875 17.02390625 0 17 C0.495 15.515 0.495 15.515 1 14 C1.66 13.67 2.32 13.34 3 13 C3.33 12.01 3.66 11.02 4 10 C2.68 10 1.36 10 0 10 C0 6.7 0 3.4 0 0 Z " fill="#3C7292" transform="translate(296,295)"/>
<path d="M0 0 C0.99 0 1.98 0 3 0 C3.433125 0.639375 3.86625 1.27875 4.3125 1.9375 C5.91325516 4.32066633 5.91325516 4.32066633 9.1875 4.75 C10.115625 4.8325 11.04375 4.915 12 5 C8.34008126 7.21643934 4.76853073 7.59976722 0.5625 8.125 C-0.73558594 8.29257812 -2.03367187 8.46015625 -3.37109375 8.6328125 C-7 9 -7 9 -9.84765625 8.9296875 C-12.21736173 8.76160012 -12.21736173 8.76160012 -14 11 C-14.66 9.02 -15.32 7.04 -16 5 C-15.01257813 4.80664062 -14.02515625 4.61328125 -13.0078125 4.4140625 C-11.72648438 4.15367187 -10.44515625 3.89328125 -9.125 3.625 C-7.84882812 3.36976563 -6.57265625 3.11453125 -5.2578125 2.8515625 C-1.94075544 2.27762104 -1.94075544 2.27762104 0 0 Z " fill="#4D6A79" transform="translate(667,547)"/>
<path d="M0 0 C2.47846301 3.71769452 2.26100633 6.58068272 2.1875 10.875 C2.18685547 11.58269531 2.18621094 12.29039062 2.18554688 13.01953125 C2.14727493 17.5866502 2.06629042 21.86741915 0 26 C-0.66 26.33 -1.32 26.66 -2 27 C-4.05164339 30.35723464 -5.75781694 33.27345083 -7 37 C-7.66 37 -8.32 37 -9 37 C-8.66024731 30.88445159 -7.05341059 26.82284801 -4.20703125 21.43359375 C-0.86145029 14.68829622 -0.51784156 7.41331074 0 0 Z " fill="#4D6578" transform="translate(758,523)"/>
<path d="M0 0 C1 1 1 1 1.3125 3.8125 C1 7 1 7 -0.6875 9.4375 C-3 11 -3 11 -5.5 11.125 C-9.03543528 9.53405412 -10.18631198 7.35868152 -12 4 C-12 3.01 -12 2.02 -12 1 C-8.00681626 -0.33106125 -4.16255487 -0.13647721 0 0 Z " fill="#204666" transform="translate(666,533)"/>
<path d="M0 0 C3.81538462 2.46153846 3.81538462 2.46153846 4.75 5.1875 C4.8325 5.785625 4.915 6.38375 5 7 C5.66 7 6.32 7 7 7 C7.33 6.34 7.66 5.68 8 5 C7.67 9.29 7.34 13.58 7 18 C4.36 17.34 1.72 16.68 -1 16 C-1.08441199 10.51322045 -0.92037377 5.40719589 0 0 Z " fill="#466D7C" transform="translate(321,277)"/>
<path d="M0 0 C0.66 0.33 1.32 0.66 2 1 C-0.44926511 6.71495192 -5.52146583 10.56795803 -10.8125 13.625 C-13.51757261 15.32533136 -14.55726338 17.19046026 -16 20 C-17.65 19.67 -19.3 19.34 -21 19 C-20.59007812 18.45730469 -20.18015625 17.91460938 -19.7578125 17.35546875 C-19.21898437 16.64003906 -18.68015625 15.92460938 -18.125 15.1875 C-17.59132813 14.47980469 -17.05765625 13.77210938 -16.5078125 13.04296875 C-15.29185219 11.39543703 -14.13583859 9.70375789 -13 8 C-11.34183216 7.31246699 -9.67540664 6.64438717 -8 6 C-7.67 5.34 -7.34 4.68 -7 4 C-5 3.33333333 -3 2.66666667 -1 2 C-0.67 1.34 -0.34 0.68 0 0 Z " fill="#425C6A" transform="translate(551,684)"/>
<path d="M0 0 C6.27 0 12.54 0 19 0 C18 6 18 6 17 8 C10.27137118 7.70745092 5.44708838 4.85789761 0 1 C0 0.67 0 0.34 0 0 Z " fill="#25333B" transform="translate(705,521)"/>
<path d="M0 0 C-0.33 3.63 -0.66 7.26 -1 11 C-4.3 10.67 -7.6 10.34 -11 10 C-11.25 4.375 -11.25 4.375 -9 1 C-5.96178507 0.40320778 -3.09749094 0 0 0 Z " fill="#67939E" transform="translate(326,301)"/>
<path d="M0 0 C6.50633284 5.97879234 9.71005903 12.7159738 10.19140625 21.48828125 C10.30029627 28.59517018 10.30029627 28.59517018 10 32 C9.34 32.66 8.68 33.32 8 34 C7.19022077 30.8621055 7.01856357 28.14146679 7.1875 24.9375 C7.26966918 18.82616703 5.72721621 10.82555333 1.375 6.31640625 C0.92125 5.88199219 0.4675 5.44757813 0 5 C-0.1875 2.3125 -0.1875 2.3125 0 0 Z " fill="#34545C" transform="translate(736,502)"/>
<path d="M0 0 C1.22589844 0.01353516 1.22589844 0.01353516 2.4765625 0.02734375 C3.41628906 0.04474609 3.41628906 0.04474609 4.375 0.0625 C4.5625 2.9375 4.5625 2.9375 4.375 6.0625 C0.70153229 8.51147847 -1.28856399 8.37787716 -5.625 8.0625 C-6.285 7.4025 -6.945 6.7425 -7.625 6.0625 C-7.375 3.5 -7.375 3.5 -6.625 1.0625 C-4.21954362 -0.14022819 -2.67503047 -0.03821472 0 0 Z " fill="#34667F" transform="translate(681.625,312.9375)"/>
<path d="M0 0 C5.75 0.75 5.75 0.75 8 3 C7 6 7 6 6 7 C7.32 7.66 8.64 8.32 10 9 C10 8.01 10 7.02 10 6 C10.99 6.33 11.98 6.66 13 7 C12.67 7.66 12.34 8.32 12 9 C12.66 9.33 13.32 9.66 14 10 C14 13 14 13 13 16 C11.20425007 14.56760415 9.41353093 13.1288996 7.625 11.6875 C6.62726563 10.88699219 5.62953125 10.08648438 4.6015625 9.26171875 C2 7 2 7 0 4 C0 2.68 0 1.36 0 0 Z " fill="#465F6D" transform="translate(308,514)"/>
<path d="M0 0 C1.65 0 3.3 0 5 0 C5.33 0.66 5.66 1.32 6 2 C5.34 2 4.68 2 4 2 C4.12375 2.680625 4.2475 3.36125 4.375 4.0625 C3.80996875 8.48857814 1.0260864 10.8748453 -2 14 C-3.9375 13.1875 -3.9375 13.1875 -6 12 C-6.33 11.01 -6.66 10.02 -7 9 C-6.34 9 -5.68 9 -5 9 C-4.67 8.01 -4.34 7.02 -4 6 C-3.34 6.33 -2.68 6.66 -2 7 C-1.34 4.69 -0.68 2.38 0 0 Z " fill="#416170" transform="translate(642,518)"/>
<path d="M0 0 C0.66 0.33 1.32 0.66 2 1 C1.67 4.3 1.34 7.6 1 11 C3.97 11.33 6.94 11.66 10 12 C10.66 9.03 11.32 6.06 12 3 C12.33 3 12.66 3 13 3 C13.05395478 4.62463842 13.09277195 6.24978541 13.125 7.875 C13.14820313 8.77992188 13.17140625 9.68484375 13.1953125 10.6171875 C13 13 13 13 11 15 C8.43359375 15.23046875 8.43359375 15.23046875 5.4375 15.1875 C4.44621094 15.18105469 3.45492188 15.17460938 2.43359375 15.16796875 C0 15 0 15 -1 14 C-0.90968426 11.64305046 -0.75311872 9.28846418 -0.5625 6.9375 C-0.46066406 5.64714844 -0.35882813 4.35679687 -0.25390625 3.02734375 C-0.17011719 2.02832031 -0.08632813 1.02929688 0 0 Z " fill="#CCD6D7" transform="translate(349,535)"/>
<path d="M0 0 C0.66 0 1.32 0 2 0 C2.165 0.763125 2.33 1.52625 2.5 2.3125 C4.77068812 6.38081621 7.62538216 6.65939131 12 8 C11.67 11.63 11.34 15.26 11 19 C11.99 19.66 12.98 20.32 14 21 C12.02 21 10.04 21 8 21 C7.34 17.7 6.68 14.4 6 11 C5.01 10.67 4.02 10.34 3 10 C2.6278958 8.67696283 2.29369827 7.34262065 2 6 C1.34 5.67 0.68 5.34 0 5 C0 3.35 0 1.7 0 0 Z " fill="#3A6F89" transform="translate(293,313)"/>
<path d="M0 0 C0.61875 0.495 1.2375 0.99 1.875 1.5 C6.26549441 3.60743732 10.20526785 3.6130969 15 3 C18.03465702 1.68772566 18.03465702 1.68772566 20 0 C20.28875 0.804375 20.5775 1.60875 20.875 2.4375 C21.73262568 5.1326468 21.73262568 5.1326468 24 6 C22.989375 5.95875 21.97875 5.9175 20.9375 5.875 C17.00376556 5.82203976 17.00376556 5.82203976 13.4375 7.125 C9.3843602 8.15670831 7.72211486 7.8197006 4 6 C1.625 4 1.625 4 0 2 C0 1.34 0 0.68 0 0 Z " fill="#4F707D" transform="translate(667,326)"/>
<path d="M0 0 C3.72634674 0.60879274 6.79721322 1.65582431 10.1875 3.3125 C11.47720703 3.92544922 11.47720703 3.92544922 12.79296875 4.55078125 C15.22573698 6.14822729 15.97604502 7.31712353 17 10 C15.1875 11.5625 15.1875 11.5625 13 13 C12.01 12.67 11.02 12.34 10 12 C10.66 12 11.32 12 12 12 C12 11.01 12 10.02 12 9 C11.34 9 10.68 9 10 9 C10 8.01 10 7.02 10 6 C8.63875 5.9071875 8.63875 5.9071875 7.25 5.8125 C3.26215824 4.81553956 2.23407889 3.35111834 0 0 Z " fill="#23374E" transform="translate(694,527)"/>
<path d="M0 0 C0.66 0.33 1.32 0.66 2 1 C2.51385563 3.82620599 2.34138082 5.49003606 0.734375 7.890625 C-0.78069438 9.6998826 -2.24435875 11.42174219 -4 13 C-4.66 13 -5.32 13 -6 13 C-6.33 14.32 -6.66 15.64 -7 17 C-7.66 17 -8.32 17 -9 17 C-9.33 14.03 -9.66 11.06 -10 8 C-7.36 8.33 -4.72 8.66 -2 9 C-1.34 6.03 -0.68 3.06 0 0 Z " fill="#3E6B76" transform="translate(344,294)"/>
<path d="M0 0 C0.495 0.268125 0.99 0.53625 1.5 0.8125 C4.36168999 2.17180274 7.28213277 3.1435496 10.29296875 4.12109375 C12 5 12 5 13 8 C12.071875 8.8971875 12.071875 8.8971875 11.125 9.8125 C8.86323046 12.00811144 8.86323046 12.00811144 7 15 C6.82984375 14.33613281 6.6596875 13.67226563 6.484375 12.98828125 C5.06868431 7.83004654 3.8098499 3.94122403 0 0 Z " fill="#4E6B78" transform="translate(671,512)"/>
<path d="M0 0 C6.27 0 12.54 0 19 0 C18 6 18 6 17 8 C14.69 7.67 12.38 7.34 10 7 C10.598125 6.566875 11.19625 6.13375 11.8125 5.6875 C14.23428086 3.89369048 14.23428086 3.89369048 17 1 C9.08 1.495 9.08 1.495 1 2 C0.67 1.34 0.34 0.68 0 0 Z " fill="#455B67" transform="translate(705,521)"/>
<path d="M0 0 C1 3 1 3 -0.328125 5.99609375 C-1.27945312 7.69958984 -1.27945312 7.69958984 -2.25 9.4375 C-2.87390625 10.57058594 -3.4978125 11.70367188 -4.140625 12.87109375 C-5.64691923 15.40584518 -7.06027572 17.78239387 -9 20 C-9.66 20 -10.32 20 -11 20 C-11 19.01 -11 18.02 -11 17 C-10.34 17 -9.68 17 -9 17 C-9 15.68 -9 14.36 -9 13 C-7.68799596 11.64567325 -6.35368596 10.31266518 -5 9 C-4.2127322 6.8618034 -4.2127322 6.8618034 -4 5 C-3.34 5 -2.68 5 -2 5 C-1.34 3.35 -0.68 1.7 0 0 Z " fill="#7E9AA6" transform="translate(382,509)"/>
<path d="M0 0 C2.65147064 2.65147064 2.28937297 4.66903888 2.32226562 8.28125 C2.31904297 9.0959375 2.31582031 9.910625 2.3125 10.75 C2.32861328 11.54921875 2.34472656 12.3484375 2.36132812 13.171875 C2.36547452 18.21388899 1.69820528 21.58604942 -1 26 C-1.93423645 22.98968256 -2.04449911 22.13349732 -1 19 C-0.85426942 17.52034074 -0.75336732 16.03596157 -0.68359375 14.55078125 C-0.64169922 13.70322266 -0.59980469 12.85566406 -0.55664062 11.98242188 C-0.49766602 10.66081055 -0.49766602 10.66081055 -0.4375 9.3125 C-0.39431641 8.41982422 -0.35113281 7.52714844 -0.30664062 6.60742188 C-0.20064647 4.40509892 -0.09857949 2.20266527 0 0 Z " fill="#233247" transform="translate(718,403)"/>
<path d="M0 0 C1.29047599 3.87142798 0.42485574 5.58551976 -0.8125 9.4375 C-1.16957031 10.57058594 -1.52664063 11.70367188 -1.89453125 12.87109375 C-2.78592126 15.39407395 -3.76935057 17.6373608 -5 20 C-5.33 20.99 -5.66 21.98 -6 23 C-6 22.34 -6 21.68 -6 21 C-6.99 21 -7.98 21 -9 21 C-9.33 20.01 -9.66 19.02 -10 18 C-9.21625 17.71125 -8.4325 17.4225 -7.625 17.125 C-4.06923773 14.24652578 -4.13468222 11.83290996 -3.46875 7.453125 C-2.90618365 4.50902775 -1.76552611 2.40753561 0 0 Z " fill="#556E76" transform="translate(743,537)"/>
<path d="M0 0 C2.64 0 5.28 0 8 0 C8.36363636 5.45454545 8.36363636 5.45454545 6.75 7.875 C5 9 5 9 1 9 C1.20625 7.88625 1.4125 6.7725 1.625 5.625 C1.74875 4.42875 1.8725 3.2325 2 2 C1.34 1.34 0.68 0.68 0 0 Z " fill="#153B5F" transform="translate(659,534)"/>
<path d="M0 0 C3.66109346 3.36424804 6.27258702 6.29759799 8 11 C7.6875 14.375 7.6875 14.375 7 17 C5.81610521 14.63221042 4.64567016 12.26181283 3.5 9.875 C2.16410963 6.96422524 2.16410963 6.96422524 0 5 C-0.125 2.375 -0.125 2.375 0 0 Z " fill="#475D65" transform="translate(736,502)"/>
<path d="M0 0 C2.64 0 5.28 0 8 0 C8 0.66 8 1.32 8 2 C9.27875 2.226875 10.5575 2.45375 11.875 2.6875 C14.0859375 3.22265625 14.0859375 3.22265625 16 4 C17.5 6.625 17.5 6.625 18 9 C13.78224268 7.64474464 9.70578678 6.09799886 5.625 4.375 C4.56539062 3.92898437 3.50578125 3.48296875 2.4140625 3.0234375 C1.61742187 2.68570313 0.82078125 2.34796875 0 2 C0 1.34 0 0.68 0 0 Z " fill="#354647" transform="translate(537,224)"/>
<path d="M0 0 C1.8871875 0.0309375 1.8871875 0.0309375 3.8125 0.0625 C3.8125 1.3825 3.8125 2.7025 3.8125 4.0625 C-0.4775 4.0625 -4.7675 4.0625 -9.1875 4.0625 C-8.5275 3.7325 -7.8675 3.4025 -7.1875 3.0625 C-7.1875 2.4025 -7.1875 1.7425 -7.1875 1.0625 C-4.43671116 0.14557039 -2.82801087 -0.04636083 0 0 Z " fill="#B2C5CC" transform="translate(715.1875,515.9375)"/>
<path d="M0 0 C0.66 0.33 1.32 0.66 2 1 C1.59520379 3.83357348 1.16518485 4.85030123 -1 6.8125 C-3.66764344 9.73023501 -3.7028631 12.13722032 -4 16 C-4.66 15.67 -5.32 15.34 -6 15 C-6.62925559 9.96595527 -6.10379244 7.64988863 -3 3.5625 C-2.01580259 2.36187029 -1.02080074 1.16966752 0 0 Z " fill="#333B44" transform="translate(664,399)"/>
<path d="M0 0 C0.99 0.33 1.98 0.66 3 1 C1.92598892 3.91517292 1.22189824 5.77810176 -1 8 C-1.165 9.175625 -1.33 10.35125 -1.5 11.5625 C-1.665 12.696875 -1.83 13.83125 -2 15 C-2.99 15.495 -2.99 15.495 -4 16 C-5.1233244 12.71643636 -5.24383906 10.61141735 -3.953125 7.375 C-2.69157319 4.88024586 -1.38639349 2.42738791 0 0 Z " fill="#7DB9CF" transform="translate(476,314)"/>
<path d="M0 0 C0.66 0 1.32 0 2 0 C1.67 3.3 1.34 6.6 1 10 C-0.65 9.67 -2.3 9.34 -4 9 C-3.7215625 8.1028125 -3.7215625 8.1028125 -3.4375 7.1875 C-2.77906313 4.83591238 -2.77906313 4.83591238 -4 2 C-2.68 2 -1.36 2 0 2 C0 1.34 0 0.68 0 0 Z " fill="#507E91" transform="translate(324,301)"/>
<path d="M0 0 C2.64 0 5.28 0 8 0 C7.04663979 1.31611677 6.08714226 2.62778961 5.125 3.9375 C4.59132813 4.66839844 4.05765625 5.39929688 3.5078125 6.15234375 C2 8 2 8 0 9 C0 6.03 0 3.06 0 0 Z " fill="#54717B" transform="translate(332,320)"/>
<path d="M0 0 C1.65 0 3.3 0 5 0 C5.33 0.66 5.66 1.32 6 2 C4.35 2 2.7 2 1 2 C0.9175 2.515625 0.835 3.03125 0.75 3.5625 C-0.32140225 7.04455732 -2.13523605 9.87200885 -4 13 C-4.99 12.01 -5.98 11.02 -7 10 C-6.34 9.67 -5.68 9.34 -5 9 C-4.67 8.01 -4.34 7.02 -4 6 C-3.34 6.33 -2.68 6.66 -2 7 C-1.34 4.69 -0.68 2.38 0 0 Z " fill="#517180" transform="translate(642,518)"/>
<path d="M0 0 C0.66 0 1.32 0 2 0 C1.54996653 5.62541841 0.31558515 8.61487125 -3 13 C-4.10096216 9.73381227 -3.9223497 7.98446051 -2.625 4.8125 C-2.34914063 4.11769531 -2.07328125 3.42289062 -1.7890625 2.70703125 C-1 1 -1 1 0 0 Z " fill="#456873" transform="translate(272,496)"/>
<path d="M0 0 C-1.13719419 3.41158256 -2.04342944 4.11854601 -5 6 C-5.66 6 -6.32 6 -7 6 C-7 9.63 -7 13.26 -7 17 C-7.33 17 -7.66 17 -8 17 C-9.60277136 8.18475751 -9.60277136 8.18475751 -7.1875 3.4375 C-4.5325263 0.47910074 -3.95732966 0 0 0 Z " fill="#202A32" transform="translate(329,399)"/>
<path d="M0 0 C1.35685506 5.42742025 -0.46752668 8.20764598 -3 13 C-4.75 15.5625 -4.75 15.5625 -6 17 C-6.66 16.67 -7.32 16.34 -8 16 C-5.36 10.72 -2.72 5.44 0 0 Z " fill="#34454C" transform="translate(465,510)"/>
<path d="M0 0 C1.77007714 -0.08114106 3.54122098 -0.13925505 5.3125 -0.1875 C6.29863281 -0.22230469 7.28476562 -0.25710938 8.30078125 -0.29296875 C11 0 11 0 12.85546875 1.32421875 C14 3 14 3 14 6 C12.35 6 10.7 6 9 6 C9 4.68 9 3.36 9 2 C6.03 1.67 3.06 1.34 0 1 C0 0.67 0 0.34 0 0 Z " fill="#3A6583" transform="translate(673,300)"/>
<path d="M0 0 C0 0.66 0 1.32 0 2 C-4.17490802 5.40086196 -8.16296011 5.36697458 -13.3125 5.1875 C-14.05306641 5.17396484 -14.79363281 5.16042969 -15.55664062 5.14648438 C-17.37141075 5.11135979 -19.18580288 5.05755972 -21 5 C-21 4.67 -21 4.34 -21 4 C-20.04738281 3.87882812 -19.09476562 3.75765625 -18.11328125 3.6328125 C-16.85902344 3.46523438 -15.60476563 3.29765625 -14.3125 3.125 C-13.07113281 2.96257812 -11.82976562 2.80015625 -10.55078125 2.6328125 C-6.97045681 1.99473488 -3.56889068 0 0 0 Z " fill="#0D374A" transform="translate(521,365)"/>
<path d="M0 0 C2.31 0 4.62 0 7 0 C7 1.98 7 3.96 7 6 C5.68 6.33 4.36 6.66 3 7 C2.34 5.68 1.68 4.36 1 3 C1.99 3 2.98 3 4 3 C2.68 2.67 1.36 2.34 0 2 C0 1.34 0 0.68 0 0 Z " fill="#245772" transform="translate(679,313)"/>
<path d="M0 0 C4.45624412 0.51816792 7.21445723 1.67043522 11 4 C13.69254991 4.70670728 13.69254991 4.70670728 16 5 C14.3203125 6.10546875 14.3203125 6.10546875 12 7 C9.4921875 6.42578125 9.4921875 6.42578125 6.875 5.3125 C6.00617188 4.95800781 5.13734375 4.60351562 4.2421875 4.23828125 C2 3 2 3 0 0 Z " fill="#77BFCB" transform="translate(484,361)"/>
<path d="M0 0 C0.66 0 1.32 0 2 0 C2.165 0.763125 2.33 1.52625 2.5 2.3125 C4.69479908 6.24484835 7.8222367 6.80496538 12 8 C11.67 8.99 11.34 9.98 11 11 C9.576875 10.4740625 9.576875 10.4740625 8.125 9.9375 C5.12939828 8.64973223 5.12939828 8.64973223 3 10 C2.87625 9.360625 2.7525 8.72125 2.625 8.0625 C2.315625 7.0415625 2.315625 7.0415625 2 6 C1.34 5.67 0.68 5.34 0 5 C0 3.35 0 1.7 0 0 Z " fill="#306579" transform="translate(293,313)"/>
<path d="M0 0 C5.75 0.75 5.75 0.75 8 3 C7.67 3.99 7.34 4.98 7 6 C6.01 6 5.02 6 4 6 C4 5.34 4 4.68 4 4 C3.34 4 2.68 4 2 4 C1.67 4.66 1.34 5.32 1 6 C0.67 4.02 0.34 2.04 0 0 Z " fill="#506C7C" transform="translate(308,514)"/>
<path d="M0 0 C0.99 0.33 1.98 0.66 3 1 C2.34 2.32 1.68 3.64 1 5 C7.93 5.495 7.93 5.495 15 6 C15 6.33 15 6.66 15 7 C9.72 7 4.44 7 -1 7 C-1.33 5.35 -1.66 3.7 -2 2 C-1.34 1.34 -0.68 0.68 0 0 Z " fill="#D1E4E8" transform="translate(649,513)"/>
<path d="M0 0 C0.33 0 0.66 0 1 0 C1 4.62 1 9.24 1 14 C0.01 14.495 0.01 14.495 -1 15 C-1.66 14.67 -2.32 14.34 -3 14 C-2.69147815 12.041036 -2.3780582 10.08284287 -2.0625 8.125 C-1.88847656 7.03445313 -1.71445312 5.94390625 -1.53515625 4.8203125 C-1 2 -1 2 0 0 Z " fill="#D4E6EE" transform="translate(329,283)"/>
<path d="M0 0 C0.66 0.33 1.32 0.66 2 1 C-1.96 5.29 -5.92 9.58 -10 14 C-10.33 13.01 -10.66 12.02 -11 11 C-7.37 7.37 -3.74 3.74 0 0 Z " fill="#E2EDF0" transform="translate(309,663)"/>
<path d="M0 0 C-2 2 -2 2 -5.3125 2.0625 C-7.1378125 2.0315625 -7.1378125 2.0315625 -9 2 C-10.67557379 2.28520405 -12.34817245 2.59955696 -14 3 C-14.33 2.34 -14.66 1.68 -15 1 C-10.09584033 -3.25027172 -5.73720184 -1.54848749 0 0 Z " fill="#596F75" transform="translate(324,549)"/>
<path d="M0 0 C6.93 0.495 6.93 0.495 14 1 C14 1.33 14 1.66 14 2 C8.06 2.495 8.06 2.495 2 3 C1.67 4.65 1.34 6.3 1 8 C0.34 7.67 -0.32 7.34 -1 7 C-0.67 4.69 -0.34 2.38 0 0 Z " fill="#D4E9F0" transform="translate(296,539)"/>
<path d="M0 0 C0.99 0.33 1.98 0.66 3 1 C2.35389319 4.48897679 0.98128683 7.06769549 -1 10 C-1.99 10.495 -1.99 10.495 -3 11 C-2.25 3.375 -2.25 3.375 0 0 Z " fill="#547185" transform="translate(752,549)"/>
<path d="M0 0 C2.97 0.495 2.97 0.495 6 1 C6 2.32 6 3.64 6 5 C5.01 5.66 4.02 6.32 3 7 C2.01 6.67 1.02 6.34 0 6 C0.66 6 1.32 6 2 6 C2 5.01 2 4.02 2 3 C1.34 3 0.68 3 0 3 C0 2.01 0 1.02 0 0 Z " fill="#12293B" transform="translate(704,533)"/>
<path d="M0 0 C0.66 0 1.32 0 2 0 C2.33 4.62 2.66 9.24 3 14 C2.34 14 1.68 14 1 14 C-0.38226016 11.23547967 -0.09525387 8.9538637 -0.0625 5.875 C-0.05347656 4.77929688 -0.04445313 3.68359375 -0.03515625 2.5546875 C-0.02355469 1.71164062 -0.01195312 0.86859375 0 0 Z " fill="#6CA8BA" transform="translate(470,328)"/>
<path d="M0 0 C0.66 0 1.32 0 2 0 C2.46192125 4.92715996 0.8275283 8.50732625 -1 13 C-3 10 -3 10 -2.5390625 7.51953125 C-2.23742187 6.62621094 -1.93578125 5.73289062 -1.625 4.8125 C-1.32851563 3.91144531 -1.03203125 3.01039063 -0.7265625 2.08203125 C-0.48679687 1.39496094 -0.24703125 0.70789063 0 0 Z " fill="#456071" transform="translate(272,537)"/>
<path d="M0 0 C2.67438936 2.38335287 4.15158012 4.87036148 5.75 8.0625 C6.19859375 8.94035156 6.6471875 9.81820313 7.109375 10.72265625 C7.40328125 11.47417969 7.6971875 12.22570312 8 13 C7.67 13.66 7.34 14.32 7 15 C3.13521815 10.60214479 0 6.02718405 0 0 Z " fill="#7BB8C7" transform="translate(472,343)"/>
<path d="M0 0 C0.66 0.33 1.32 0.66 2 1 C1.40975852 2.65087847 0.80233994 4.29562407 0.1875 5.9375 C-0.14894531 6.85402344 -0.48539062 7.77054687 -0.83203125 8.71484375 C-2 11 -2 11 -5 12 C-4.54738642 10.56068883 -4.08767021 9.12361001 -3.625 7.6875 C-3.24214844 6.48673828 -3.24214844 6.48673828 -2.8515625 5.26171875 C-2 3 -2 3 0 0 Z " fill="#38454D" transform="translate(442,301)"/>
<path d="M0 0 C5.75 0.875 5.75 0.875 8 2 C8 2.66 8 3.32 8 4 C5.36 4 2.72 4 0 4 C-0.33 3.34 -0.66 2.68 -1 2 C-0.67 1.34 -0.34 0.68 0 0 Z " fill="#C7D6E4" transform="translate(447,470)"/>
<path d="M0 0 C0.66 0.33 1.32 0.66 2 1 C2.23861338 3.86336051 2.20193689 5.60734493 0.875 8.1875 C-1.52600169 10.5084683 -3.80781657 11.14875108 -7 12 C-6.34 11.01 -5.68 10.02 -5 9 C-4.01 9 -3.02 9 -2 9 C-1.34 6.03 -0.68 3.06 0 0 Z " fill="#51717E" transform="translate(344,294)"/>
<path d="M0 0 C0.66 0.33 1.32 0.66 2 1 C2 1.66 2 2.32 2 3 C4.97 3.495 4.97 3.495 8 4 C8 4.33 8 4.66 8 5 C2.62694301 5.96891192 2.62694301 5.96891192 0 6 C-2 4.5625 -2 4.5625 -3 3 C-2.01 2.67 -1.02 2.34 0 2 C0 1.34 0 0.68 0 0 Z " fill="#596C72" transform="translate(691,547)"/>
<path d="M0 0 C2.02045442 0.60183749 4.02111039 1.27306096 6 2 C6.33 2.66 6.66 3.32 7 4 C8.97888961 4.72693904 10.97954558 5.39816251 13 6 C13 6.33 13 6.66 13 7 C7.59305933 6.56744475 4.24633878 5.41778487 0 2 C0 1.34 0 0.68 0 0 Z " fill="#1E303D" transform="translate(443,464)"/>
<path d="M0 0 C-0.33 0.66 -0.66 1.32 -1 2 C-4.96 2 -8.92 2 -13 2 C-8.24378872 -1.17080752 -5.58805025 -1.14301028 0 0 Z " fill="#7AB0C1" transform="translate(504,302)"/>
<path d="M0 0 C2.64 0 5.28 0 8 0 C8 0.99 8 1.98 8 3 C5.69 3 3.38 3 1 3 C0.67 3.99 0.34 4.98 0 6 C0 4.02 0 2.04 0 0 Z " fill="#8CA0A9" transform="translate(340,508)"/>
<path d="M0 0 C-1.90598443 2.43542455 -3.00596275 3.00158196 -6.0625 3.8125 C-7.5165625 3.9053125 -7.5165625 3.9053125 -9 4 C-9.66 3.34 -10.32 2.68 -11 2 C-3.57142857 -1.57142857 -3.57142857 -1.57142857 0 0 Z " fill="#2F454E" transform="translate(359,451)"/>
<path d="M0 0 C0.33 0 0.66 0 1 0 C0.67 2.97 0.34 5.94 0 9 C-0.99 9.33 -1.98 9.66 -3 10 C-2.25 3.375 -2.25 3.375 0 0 Z " fill="#415F6F" transform="translate(756,541)"/>
<path d="M0 0 C0.66 0.33 1.32 0.66 2 1 C1.75 4.3125 1.75 4.3125 1 8 C-0.32 8.99 -1.64 9.98 -3 11 C-2.01 7.37 -1.02 3.74 0 0 Z " fill="#7797A4" transform="translate(512,524)"/>
<path d="M0 0 C0.33 0 0.66 0 1 0 C1.31563182 5.26053037 0.66590937 8.44573816 -2 13 C-3.18771723 9.57056481 -2.80226223 7.62215325 -1.5625 4.25 C-1.27503906 3.45078125 -0.98757813 2.6515625 -0.69140625 1.828125 C-0.46324219 1.22484375 -0.23507812 0.6215625 0 0 Z " fill="#192A39" transform="translate(719,416)"/>
<path d="M0 0 C2.31 1.98 4.62 3.96 7 6 C5.02 6.99 5.02 6.99 3 8 C0 3.375 0 3.375 0 0 Z " fill="#607784" transform="translate(449,791)"/>
<path d="M0 0 C2.97 0.495 2.97 0.495 6 1 C6.33 2.65 6.66 4.3 7 6 C7.66 6 8.32 6 9 6 C8.67 6.99 8.34 7.98 8 9 C7.236875 8.071875 6.47375 7.14375 5.6875 6.1875 C3.88151448 4.01723899 2.0523371 1.94431935 0 0 Z " fill="#768B8D" transform="translate(533,704)"/>
<path d="M0 0 C0.66 0.33 1.32 0.66 2 1 C1.67 1.99 1.34 2.98 1 4 C-0.98 4.33 -2.96 4.66 -5 5 C-5.33 5.99 -5.66 6.98 -6 8 C-6.99 7.67 -7.98 7.34 -9 7 C-6.57331293 3.35996939 -5.03697185 3.28839527 -1 2 C-0.67 1.34 -0.34 0.68 0 0 Z " fill="#3A535F" transform="translate(551,684)"/>
<path d="M0 0 C2.475 0.495 2.475 0.495 5 1 C5.33 2.32 5.66 3.64 6 5 C5.01 5.33 4.02 5.66 3 6 C3 5.34 3 4.68 3 4 C2.34 4 1.68 4 1 4 C0.67 2.68 0.34 1.36 0 0 Z " fill="#2C4D5E" transform="translate(308,532)"/>
<path d="M0 0 C2.97526665 2.55022856 4.50122302 5.40293526 6 9 C5.67 9.99 5.34 10.98 5 12 C4.15885829 10.56705502 3.32734313 9.12845595 2.5 7.6875 C1.80390625 6.48673828 1.80390625 6.48673828 1.09375 5.26171875 C0 3 0 3 0 0 Z " fill="#637485" transform="translate(352,514)"/>
<path d="M0 0 C0.99 0.33 1.98 0.66 3 1 C3.6875 3.0625 3.6875 3.0625 4 5 C3.01 4.34 2.02 3.68 1 3 C-0.65 4.32 -2.3 5.64 -4 7 C-4 4 -4 4 -2 1.8125 C-1.34 1.214375 -0.68 0.61625 0 0 Z " fill="#54707E" transform="translate(606,439)"/>
<path d="M0 0 C1.8871875 0.0309375 1.8871875 0.0309375 3.8125 0.0625 C1.41486815 2.46013185 0.47976502 2.40530586 -2.8125 2.6875 C-3.62976563 2.76226563 -4.44703125 2.83703125 -5.2890625 2.9140625 C-5.91554688 2.96304688 -6.54203125 3.01203125 -7.1875 3.0625 C-7.1875 2.4025 -7.1875 1.7425 -7.1875 1.0625 C-4.43671116 0.14557039 -2.82801087 -0.04636083 0 0 Z " fill="#172933" transform="translate(334.1875,684.9375)"/>
<path d="M0 0 C0.99 0 1.98 0 3 0 C3.33 1.65 3.66 3.3 4 5 C1.69 4.67 -0.62 4.34 -3 4 C-1.6875 2 -1.6875 2 0 0 Z " fill="#345762" transform="translate(667,547)"/>
<path d="M0 0 C0.66 0 1.32 0 2 0 C3.65 3.63 5.3 7.26 7 11 C6.01 11.495 6.01 11.495 5 12 C4.15885829 10.56705502 3.32734313 9.12845595 2.5 7.6875 C1.80390625 6.48673828 1.80390625 6.48673828 1.09375 5.26171875 C0 3 0 3 0 0 Z " fill="#29333F" transform="translate(578,482)"/>
<path d="M0 0 C3 1 3 1 4.3125 3.375 C4.6528125 4.674375 4.6528125 4.674375 5 6 C4.01 7.485 4.01 7.485 3 9 C1.68 6.36 0.36 3.72 -1 1 C-0.67 0.67 -0.34 0.34 0 0 Z " fill="#CADCE4" transform="translate(565,466)"/>
<path d="M0 0 C3.55780196 0.60990891 6.6828589 1.5783681 10 3 C9.67 3.66 9.34 4.32 9 5 C5.7 4.01 2.4 3.02 -1 2 C-0.67 1.34 -0.34 0.68 0 0 Z " fill="#2E4549" transform="translate(685,655)"/>
<path d="M0 0 C0.6875 1.6875 0.6875 1.6875 1 4 C-0.375 6.75 -0.375 6.75 -2 9 C-2.33 9 -2.66 9 -3 9 C-3.36923077 3.46153846 -3.36923077 3.46153846 -1.5 1.125 C-1.005 0.75375 -0.51 0.3825 0 0 Z " fill="#7994A2" transform="translate(357,553)"/>
<path d="M0 0 C1.15957207 3.47871621 0.77456651 4.34219645 -0.4375 7.6875 C-0.72496094 8.49574219 -1.01242187 9.30398438 -1.30859375 10.13671875 C-1.65083984 11.05904297 -1.65083984 11.05904297 -2 12 C-2.33 12 -2.66 12 -3 12 C-3.2954439 6.97745369 -2.98514628 4.10457614 0 0 Z " fill="#3C656F" transform="translate(743,537)"/>
<path d="M0 0 C2.45391569 3.68087353 2.22802759 6.44355588 2.125 10.6875 C2.11597656 11.38939453 2.10695313 12.09128906 2.09765625 12.81445312 C2.07413704 14.54311525 2.03826713 16.27160145 2 18 C1.67 18 1.34 18 1 18 C0.90912109 16.62714844 0.90912109 16.62714844 0.81640625 15.2265625 C0.69072266 13.44378906 0.69072266 13.44378906 0.5625 11.625 C0.48128906 10.44164062 0.40007812 9.25828125 0.31640625 8.0390625 C0.18915064 5.08481099 0.18915064 5.08481099 -1 3 C-0.67 2.01 -0.34 1.02 0 0 Z " fill="#CAD6E1" transform="translate(377,402)"/>
<path d="M0 0 C-1.15173355 2.46800047 -2.04783565 4.04783565 -4 6 C-6.125 5.625 -6.125 5.625 -8 5 C-2.25 0 -2.25 0 0 0 Z " fill="#75B0BF" transform="translate(487,306)"/>
<path d="M0 0 C4.75 1.875 4.75 1.875 7 3 C7 3.66 7 4.32 7 5 C5.68 5.33 4.36 5.66 3 6 C2.01 4.02 1.02 2.04 0 0 Z " fill="#526C78" transform="translate(623,757)"/>
<path d="M0 0 C1.32 0.33 2.64 0.66 4 1 C0.535 3.97 0.535 3.97 -3 7 C-3.66 6.67 -4.32 6.34 -5 6 C-3.35 4.02 -1.7 2.04 0 0 Z " fill="#4B6572" transform="translate(546,689)"/>
<path d="M0 0 C0.33 0.66 0.66 1.32 1 2 C0.1875 4.3125 0.1875 4.3125 -1 7 C-1.37125 7.928125 -1.7425 8.85625 -2.125 9.8125 C-2.41375 10.534375 -2.7025 11.25625 -3 12 C-3.66 12 -4.32 12 -5 12 C-4.54738642 10.56068883 -4.08767021 9.12361001 -3.625 7.6875 C-3.24214844 6.48673828 -3.24214844 6.48673828 -2.8515625 5.26171875 C-2 3 -2 3 0 0 Z " fill="#DCE8EE" transform="translate(346,642)"/>
<path d="M0 0 C0.33 0 0.66 0 1 0 C1 2.31 1 4.62 1 7 C-1.97 7 -4.94 7 -8 7 C-8 6.67 -8 6.34 -8 6 C-5.36 5.34 -2.72 4.68 0 4 C0 2.68 0 1.36 0 0 Z " fill="#E2EDF0" transform="translate(268,552)"/>
<path d="M0 0 C2.64 0 5.28 0 8 0 C8 0.99 8 1.98 8 3 C5.03 2.67 2.06 2.34 -1 2 C-0.67 1.34 -0.34 0.68 0 0 Z " fill="#172730" transform="translate(332,397)"/>
<path d="M0 0 C0.33 0 0.66 0 1 0 C1.08114106 1.77007714 1.13925505 3.54122098 1.1875 5.3125 C1.23970703 6.79169922 1.23970703 6.79169922 1.29296875 8.30078125 C1 11 1 11 -0.51171875 12.85546875 C-1.00285156 13.23316406 -1.49398437 13.61085938 -2 14 C-1.03644647 4.58997722 -1.03644647 4.58997722 0 0 Z " fill="#617885" transform="translate(727,307)"/>
<path d="M0 0 C0.66 0 1.32 0 2 0 C3.5078125 1.75 3.5078125 1.75 5.125 4 C5.66382813 4.7425 6.20265625 5.485 6.7578125 6.25 C7.16773438 6.8275 7.57765625 7.405 8 8 C4.11137013 6.73882275 2.10624401 5.54735833 0 2 C0 1.34 0 0.68 0 0 Z " fill="#1B3139" transform="translate(639,730)"/>
<path d="M0 0 C0.33 0 0.66 0 1 0 C1 2.64 1 5.28 1 8 C-0.32 8 -1.64 8 -3 8 C-1.125 2.25 -1.125 2.25 0 0 Z " fill="#334246" transform="translate(426,585)"/>
<path d="M0 0 C1.32 0.33 2.64 0.66 4 1 C4 2.98 4 4.96 4 7 C3.01 7.495 3.01 7.495 2 8 C1.34 5.36 0.68 2.72 0 0 Z " fill="#A1B7C1" transform="translate(699,512)"/>
<path d="M0 0 C0.66 0.99 1.32 1.98 2 3 C1.67 3.66 1.34 4.32 1 5 C-0.32 5 -1.64 5 -3 5 C-3 4.34 -3 3.68 -3 3 C-3.66 2.67 -4.32 2.34 -5 2 C-3.35 1.34 -1.7 0.68 0 0 Z " fill="#2B404C" transform="translate(696,450)"/>
<path d="M0 0 C0.33 0.99 0.66 1.98 1 3 C0.67 3.66 0.34 4.32 0 5 C-0.99 5 -1.98 5 -3 5 C-3.33 6.32 -3.66 7.64 -4 9 C-4.8125 7.3125 -4.8125 7.3125 -5 5 C-2.5625 2.25 -2.5625 2.25 0 0 Z " fill="#5B7988" transform="translate(600,445)"/>
<path d="M0 0 C0.66 1.32 1.32 2.64 2 4 C0.625 7.25 0.625 7.25 -1 10 C-1.66 10 -2.32 10 -3 10 C-2.01 6.7 -1.02 3.4 0 0 Z " fill="#465358" transform="translate(377,424)"/>
<path d="M0 0 C0.33 0 0.66 0 1 0 C1.103125 1.11375 1.20625 2.2275 1.3125 3.375 C1.539375 4.57125 1.76625 5.7675 2 7 C2.99 7.66 3.98 8.32 5 9 C3.02 9 1.04 9 -1 9 C-0.67 6.03 -0.34 3.06 0 0 Z " fill="#356577" transform="translate(302,325)"/>
<path d="M0 0 C0.66 0.33 1.32 0.66 2 1 C2.10836453 2.43583001 2.18576167 3.8740202 2.25 5.3125 C2.29640625 6.11300781 2.3428125 6.91351563 2.390625 7.73828125 C2 10 2 10 -2 13 C-1.34 8.71 -0.68 4.42 0 0 Z " fill="#335569" transform="translate(667,300)"/>
<path d="M0 0 C0.33 1.32 0.66 2.64 1 4 C-0.65 5.32 -2.3 6.64 -4 8 C-4.66 7.67 -5.32 7.34 -6 7 C-4.02 4.69 -2.04 2.38 0 0 Z " fill="#34484D" transform="translate(713,727)"/>
<path d="M0 0 C-2.97 2.475 -2.97 2.475 -6 5 C-6.33 3.35 -6.66 1.7 -7 0 C-3.86650268 -1.04449911 -3.01031744 -0.93423645 0 0 Z " fill="#425558" transform="translate(552,717)"/>
<path d="M0 0 C0.33 0.66 0.66 1.32 1 2 C-1.64 2 -4.28 2 -7 2 C-7 1.34 -7 0.68 -7 0 C-3.88407501 -1.03864166 -2.9737344 -1.09036928 0 0 Z " fill="#C6D8DF" transform="translate(716,518)"/>
<path d="M0 0 C0.6875 1.8125 0.6875 1.8125 1 4 C-0.4375 5.75 -0.4375 5.75 -2 7 C-2.99 6.67 -3.98 6.34 -5 6 C-3.35 4.02 -1.7 2.04 0 0 Z " fill="#1F4754" transform="translate(534,352)"/>
<path d="M0 0 C0.66 0.33 1.32 0.66 2 1 C2 2.98 2 4.96 2 7 C1.01 7.495 1.01 7.495 0 8 C-1.125 2.25 -1.125 2.25 0 0 Z " fill="#74B2C7" transform="translate(472,322)"/>
<path d="M0 0 C0.66 0 1.32 0 2 0 C2.66 2.97 3.32 5.94 4 9 C0.06153846 5.67692308 0.06153846 5.67692308 -0.25 2.25 C-0.1675 1.5075 -0.085 0.765 0 0 Z " fill="#384B54" transform="translate(571,311)"/>
<path d="M0 0 C0.99 0.33 1.98 0.66 3 1 C3 2.98 3 4.96 3 7 C2.01 6.67 1.02 6.34 0 6 C0 4.02 0 2.04 0 0 Z " fill="#2E4B5C" transform="translate(296,295)"/>
<path d="M0 0 C0 2.83967231 -0.40267181 5.23735711 -1 8 C-2.32 7.34 -3.64 6.68 -5 6 C-3.35 4.02 -1.7 2.04 0 0 Z " fill="#3C535E" transform="translate(535,696)"/>
<path d="M0 0 C0 0.66 0 1.32 0 2 C-4.47058824 6 -4.47058824 6 -7 6 C-5.52522876 2.59668175 -4.14385429 0 0 0 Z " fill="#1B353E" transform="translate(296,641)"/>
<path d="M0 0 C0.99 0.495 0.99 0.495 2 1 C2.40729228 3.32156597 2.74438677 5.6568787 3 8 C2.01 7.67 1.02 7.34 0 7 C0 4.69 0 2.38 0 0 Z " fill="#152A38" transform="translate(684,622)"/>
<path d="M0 0 C-3.00617269 3.00617269 -5.82381598 2.59585316 -10 3 C-6.84439813 -0.15560187 -4.30999015 -1.43666338 0 0 Z " fill="#627E88" transform="translate(712,548)"/>
<path d="M0 0 C1.65 0 3.3 0 5 0 C3.68 2.31 2.36 4.62 1 7 C0.67 7 0.34 7 0 7 C0 4.69 0 2.38 0 0 Z " fill="#3E5764" transform="translate(678,520)"/>
<path d="M0 0 C0.99 0 1.98 0 3 0 C2.67 2.97 2.34 5.94 2 9 C-0.29013653 5.5647952 -0.17842973 4.014669 0 0 Z " fill="#DDE6EB" transform="translate(341,511)"/>
<path d="M0 0 C0.33 0.66 0.66 1.32 1 2 C-0.3125 4.625 -0.3125 4.625 -2 7 C-2.66 7 -3.32 7 -4 7 C-3.43628586 3.73045798 -2.50037734 2.17424117 0 0 Z " fill="#27373A" transform="translate(595,403)"/>
<path d="M0 0 C1.32 0 2.64 0 4 0 C3.02391783 2.92824652 1.89213369 4.61426621 0 7 C0 4.69 0 2.38 0 0 Z " fill="#4C788B" transform="translate(313,322)"/>
<path d="M0 0 C0.99 0.33 1.98 0.66 3 1 C2.67 4.3 2.34 7.6 2 11 C1.67 11 1.34 11 1 11 C0.67 7.37 0.34 3.74 0 0 Z " fill="#4A5563" transform="translate(617,314)"/>
<path d="M0 0 C0.66 0.66 1.32 1.32 2 2 C-0.97 4.475 -0.97 4.475 -4 7 C-4 4 -4 4 -2 1.8125 C-1.34 1.214375 -0.68 0.61625 0 0 Z " fill="#2C3E47" transform="translate(425,250)"/>
</svg>
