<?xml version="1.0" encoding="UTF-8"?>
<svg version="1.1" xmlns="http://www.w3.org/2000/svg" width="1024" height="1024">
<path d="M0 0 C337.92 0 675.84 0 1024 0 C1024 337.92 1024 675.84 1024 1024 C686.08 1024 348.16 1024 0 1024 C0 686.08 0 348.16 0 0 Z " fill="#F8F8F8" transform="translate(0,0)"/>
<path d="M0 0 C1.93177345 0.09290314 1.93177345 0.09290314 3.90257263 0.18768311 C5.25726749 0.21011052 6.61206077 0.22717045 7.96688843 0.23913574 C11.50579757 0.28461334 15.03864236 0.40212168 18.57518005 0.5355835 C22.19454382 0.65912379 25.81490422 0.71330849 29.43577576 0.77362061 C36.51961359 0.90169884 43.59936596 1.10603628 50.67991638 1.35955811 C49.19583373 10.66561745 46.89550615 19.72407979 44.52366638 28.83221436 C44.10475268 30.45188083 43.68609367 32.0716132 43.26766968 33.69140625 C42.14429392 38.03445201 41.0151598 42.37597989 39.88427353 46.71707535 C39.17648968 49.43521785 38.47015222 52.15373261 37.76417542 54.87234497 C29.30781857 87.4247531 20.55327083 119.88997529 11.61936951 152.31414795 C9.0931515 161.48451838 6.58900074 170.66087257 4.08851624 179.83828735 C3.38275222 182.4282791 2.67631511 185.01808638 1.9697113 187.60784912 C-3.82438187 208.85005334 -9.56903135 230.10566928 -15.32008362 251.35955811 C-31.16008362 251.35955811 -47.00008362 251.35955811 -63.32008362 251.35955811 C-62.58040161 246.18178403 -61.63725228 241.44154261 -60.22242737 236.45330811 C-59.88988701 235.25920822 -59.88988701 235.25920822 -59.55062866 234.04098511 C-59.05579794 232.26588804 -58.55896586 230.49134802 -58.06044006 228.71728516 C-56.92971324 224.69252003 -55.80920897 220.66492644 -54.68785095 216.63754272 C-54.03877409 214.3066596 -53.38919468 211.97591638 -52.73918152 209.64529419 C-48.01279452 192.6910019 -43.34036632 175.72176596 -38.66142273 158.7543335 C-37.35817745 154.02856852 -36.05399231 149.30306358 -34.74948025 144.57764816 C-31.83183844 134.00868689 -28.91870967 123.4384915 -26.01017761 112.86701965 C-25.31862797 110.35426898 -24.62641353 107.84170216 -23.93409729 105.3291626 C-22.84897617 101.38999446 -21.76659045 97.4500847 -20.68639374 93.50956345 C-20.28951924 92.06323962 -19.8917842 90.61715162 -19.49314117 89.17131424 C-18.95161864 87.20656218 -18.41358137 85.24085049 -17.87574768 83.27508545 C-17.57348267 82.17433685 -17.27121765 81.07358826 -16.95979309 79.93948364 C-16.23986079 77.47903109 -16.23986079 77.47903109 -16.32008362 75.35955811 C-16.90741272 76.14266357 -16.90741272 76.14266357 -17.50660706 76.94158936 C-18.68538635 78.51329508 -19.86418 80.08499005 -21.04298401 81.65667725 C-22.40946159 83.47870221 -23.77583302 85.30080678 -25.1421051 87.12298584 C-28.25763114 91.27786733 -31.37364878 95.43235696 -34.49586487 99.58221436 C-41.57040449 108.98929289 -48.56582908 118.45296558 -55.53785706 127.93621826 C-59.04604449 132.70639203 -62.55990527 137.47238972 -66.07398987 142.23822021 C-68.97110529 146.16811857 -71.86452186 150.10062525 -74.74977112 154.03924561 C-81.49983079 163.24422114 -88.3420466 172.3711506 -95.27735901 181.43743896 C-99.28815402 186.68284698 -103.27421459 191.94490521 -107.21705627 197.24163818 C-108.48520521 198.93341933 -109.7660255 200.61578214 -111.05982971 202.2880249 C-113.91151474 205.98985317 -116.51713854 209.55695951 -118.64820862 213.72283936 C-120.93863574 217.88416994 -122.88847403 221.29607193 -127.32008362 223.35955811 C-137.19763447 225.03088171 -147.39363812 224.2145572 -157.32008362 223.35955811 C-159.25219123 218.09884527 -160.32331502 212.80169064 -161.37965393 207.31634521 C-161.57513321 206.31841949 -161.77061249 205.32049377 -161.97201538 204.29232788 C-162.617751 200.99122433 -163.25792445 197.6890667 -163.89820862 194.38690186 C-164.35140911 192.06590743 -164.8050089 189.74499093 -165.25898743 187.42414856 C-166.45687836 181.29569166 -167.65029042 175.16637176 -168.84248352 169.0368042 C-176.25780975 130.73719209 -176.25780975 130.73719209 -183.92945862 92.48846436 C-184.16602173 91.32427475 -184.40258484 90.16008514 -184.64631653 88.96061707 C-184.8580249 87.94057083 -185.06973328 86.9205246 -185.28785706 85.86956787 C-185.46556641 85.00952652 -185.64327576 84.14948517 -185.82637024 83.26338196 C-186.14746102 81.3631923 -186.14746102 81.3631923 -187.32008362 80.35955811 C-190.38348802 92.02499482 -193.44435786 103.69109528 -196.50328064 115.35770798 C-197.00480773 117.27049146 -197.50637409 119.18326465 -198.00798035 121.09602737 C-203.49469245 142.01923091 -208.9737513 162.94416 -214.35523987 183.89471436 C-214.54873457 184.64774338 -214.74222927 185.4007724 -214.94158745 186.17662048 C-216.75383406 193.23063685 -218.56286123 200.28545895 -220.36262417 207.34267139 C-221.16941715 210.50374542 -221.97956707 213.66396033 -222.78883362 216.82440186 C-223.05990433 217.89312027 -223.33097504 218.96183868 -223.61026001 220.0629425 C-226.30353232 230.56584463 -229.3369898 240.91872973 -232.32008362 251.35955811 C-247.50008362 251.35955811 -262.68008362 251.35955811 -278.32008362 251.35955811 C-275.36440759 238.94571879 -272.40064468 226.5948596 -269.06227112 214.28924561 C-268.67348498 212.84626954 -268.28503669 211.40320241 -267.89689636 209.96005249 C-267.08392204 206.93877562 -266.26944155 203.91791149 -265.45362854 200.8973999 C-263.30401255 192.93661657 -261.16642814 184.97260049 -259.03102112 177.00799561 C-258.82086617 176.22434883 -258.61071121 175.44070206 -258.39418793 174.63330841 C-255.11454091 162.397285 -251.91686379 150.14325308 -248.82008362 137.85955811 C-242.07459203 111.13396545 -234.84795945 84.53345738 -227.69267273 57.9153595 C-225.34923667 49.19713976 -223.01361151 40.47689038 -220.68727112 31.75408936 C-219.92331846 28.89274788 -219.15920575 26.0314492 -218.39503479 23.17016602 C-217.93261744 21.43723 -217.47085381 19.7041194 -217.00978088 17.9708252 C-216.39380299 15.65586847 -215.77525733 13.34161372 -215.15602112 11.02752686 C-214.65401184 9.14456909 -214.65401184 9.14456909 -214.14186096 7.22357178 C-213.32008362 4.35955811 -213.32008362 4.35955811 -212.32008362 2.35955811 C-193.51008362 2.35955811 -174.70008362 2.35955811 -155.32008362 2.35955811 C-154.10849889 6.60010466 -153.02922952 10.46027226 -152.25782776 14.73822021 C-151.98036461 16.26299484 -151.98036461 16.26299484 -151.69729614 17.818573 C-151.50191757 18.91362152 -151.306539 20.00867004 -151.10523987 21.13690186 C-150.89362717 22.30800507 -150.68201447 23.47910828 -150.46398926 24.68569946 C-149.88668954 27.88748257 -149.31284433 31.08985919 -148.74092102 34.29260635 C-148.38145788 36.30335522 -148.02055928 38.31384126 -147.65919495 40.32424927 C-143.29245451 64.62344811 -139.08167613 88.94898468 -134.93751526 113.28704834 C-134.50256673 115.8385669 -134.06759048 118.39008074 -133.63258362 120.94158936 C-133.42858444 122.14139938 -133.22458527 123.34120941 -133.0144043 124.57737732 C-131.71602978 132.17413998 -130.33038483 139.74619585 -128.80055237 147.29974365 C-128.31802386 150.37267544 -128.23112534 153.25450458 -128.32008362 156.35955811 C-123.93295551 152.25730845 -120.51141734 147.72476993 -117.00758362 142.85955811 C-111.81795305 135.7330114 -106.55195837 128.67379568 -101.19508362 121.67205811 C-91.59435856 109.10995523 -82.1175439 96.46461548 -72.75465393 83.7243042 C-67.71707622 76.87768991 -62.61805277 70.07831485 -57.50880432 63.28509521 C-54.36847723 59.10554691 -51.25020985 54.91457583 -48.19508362 50.67205811 C-40.36007376 39.83532369 -32.15439335 29.25794582 -23.71754456 18.88397217 C-23.2718512 18.33322021 -22.82615784 17.78246826 -22.36695862 17.21502686 C-21.91477463 16.67166183 -21.46259064 16.12829681 -20.9967041 15.56846619 C-19.20954324 13.29883185 -19.20954324 13.29883185 -17.55380249 10.39924622 C-12.77223078 2.86375649 -9.29046316 -0.00689883 0 0 Z " fill="#131313" transform="translate(827.3200836181641,369.64044189453125)"/>
<path d="M0 0 C2.43347502 0.00094997 4.86707827 0.03485113 7.29980469 0.09521484 C9.22237091 0.10794937 9.22237091 0.10794937 11.18377686 0.12094116 C14.58421564 0.14380301 17.98310587 0.20269742 21.38293457 0.26916504 C24.8550115 0.33064826 28.32733979 0.35796868 31.79980469 0.38818359 C38.60773076 0.45244768 45.4146308 0.55479166 52.22167969 0.68115234 C54.39980428 19.01048547 56.3524069 37.35785584 58.19396591 55.72367859 C58.79884861 61.7523703 59.40705023 67.78072913 60.01442909 73.80916977 C60.25437716 76.19161809 60.49403574 78.57409543 60.73368835 80.95657349 C61.82479418 91.79499265 62.93382275 102.63148671 64.05137062 113.46720886 C70.71434577 178.10379021 70.71434577 178.10379021 73.03100586 208.69775391 C73.16477166 210.45915509 73.29863819 212.22054862 73.43261719 213.98193359 C73.52586021 215.21754532 73.52586021 215.21754532 73.62098694 216.4781189 C74.1178763 222.85316585 74.79006354 229.20097963 75.59335327 235.54475403 C76.21837075 240.70532146 76.22167969 245.38351869 76.22167969 250.68115234 C60.71167969 250.68115234 45.20167969 250.68115234 29.22167969 250.68115234 C26.96686358 237.15225567 26.96686358 237.15225567 26.37011719 230.71240234 C26.30635895 230.02537231 26.24260071 229.33834229 26.1769104 228.63049316 C26.04539546 227.19917797 25.91610921 225.76765622 25.7890625 224.3359375 C25.59687479 222.18333764 25.39407965 220.03191332 25.19042969 217.88037109 C25.06218613 216.47027285 24.93456142 215.06011816 24.80761719 213.64990234 C24.69466309 212.40660156 24.58170898 211.16330078 24.46533203 209.88232422 C24.07156534 204.48998868 24.17421441 199.0841773 24.22167969 193.68115234 C10.69692989 193.09921508 -2.82480057 192.65642897 -16.35956478 192.38584805 C-22.64682518 192.25589248 -28.92546725 192.08010419 -35.20776367 191.79516602 C-62.56418523 188.91204646 -62.56418523 188.91204646 -87.21520901 197.38387012 C-92.15981261 202.62392916 -95.04676784 208.97203707 -97.57693481 215.65737915 C-99.17570117 219.68132221 -101.39826619 222.90476339 -103.98144531 226.34521484 C-106.03030889 229.36298026 -108.07898084 232.38086954 -110.12597656 235.39990234 C-111.13724609 236.88876953 -111.13724609 236.88876953 -112.16894531 238.40771484 C-112.74676758 239.25930176 -113.32458984 240.11088867 -113.91992188 240.98828125 C-114.53319336 241.87692871 -115.14646484 242.76557617 -115.77832031 243.68115234 C-116.07929123 244.29525467 -116.38026215 244.90935699 -116.69035339 245.54206848 C-117.8762135 247.69990134 -118.86799357 249.11468913 -120.77832031 250.68115234 C-124.80926821 251.66064517 -128.73335382 251.49628891 -132.86035156 251.36474609 C-134.02966721 251.35484146 -135.19898285 251.34493683 -136.4037323 251.33473206 C-140.13404391 251.29558467 -143.86139999 251.20775112 -147.59082031 251.11865234 C-150.12137674 251.08353944 -152.65197935 251.05160042 -155.18261719 251.02294922 C-161.38219122 250.94582106 -167.58004464 250.82872464 -173.77832031 250.68115234 C-172.67764954 248.9408501 -171.57556565 247.20144155 -170.47290039 245.46240234 C-169.85933182 244.49367188 -169.24576324 243.52494141 -168.61360168 242.52685547 C-166.01279082 238.49415743 -163.24899366 234.58904125 -160.46582031 230.68115234 C-154.33012124 221.98417956 -148.39623645 213.16557397 -142.51196289 204.29711914 C-135.11605597 193.15745204 -127.63653444 182.07480106 -120.15332031 170.99365234 C-108.92371221 154.36564105 -108.92371221 154.36564105 -97.77832031 137.68115234 C-90.46028999 126.66349626 -83.05487866 115.70528659 -75.65332031 104.74365234 C-66.55832808 91.27379506 -57.49374238 77.78510604 -48.49487305 64.25085449 C-37.11173993 47.13518503 -25.60000839 30.1059878 -14.09140015 13.07453918 C-13.58122345 12.31928452 -13.07104675 11.56402985 -12.54541016 10.78588867 C-12.05504272 10.08361145 -11.56467529 9.38133423 -11.05944824 8.65777588 C-9.5886931 6.50254889 -9.5886931 6.50254889 -8.22314453 3.16577148 C-5.23043421 0.12434819 -4.16930295 0.23420072 0 0 Z " fill="#131313" transform="translate(327.7783203125,370.31884765625)"/>
<path d="M0 0 C6.63845817 -0.10128827 13.27671766 -0.17141794 19.91577148 -0.21972656 C22.17496182 -0.23986166 24.43409992 -0.26717189 26.69311523 -0.30175781 C29.93746821 -0.35019162 33.18113317 -0.37294976 36.42578125 -0.390625 C37.94465691 -0.42159271 37.94465691 -0.42159271 39.49421692 -0.45318604 C40.90534004 -0.45363922 40.90534004 -0.45363922 42.3449707 -0.45410156 C43.17325882 -0.46298401 44.00154694 -0.47186646 44.85493469 -0.48101807 C47 0 47 0 48.68359375 1.77624512 C49.90770039 3.8440818 50.86537049 5.79088984 51.7175293 8.03417969 C52.01761398 8.81468689 52.31769867 9.59519409 52.62687683 10.39935303 C53.09581108 11.6480014 53.09581108 11.6480014 53.57421875 12.921875 C53.90291458 13.78186096 54.23161041 14.64184692 54.57026672 15.52789307 C55.61535929 18.26634879 56.65153066 21.00808163 57.6875 23.75 C58.39589807 25.61090038 59.10487585 27.47158019 59.81445312 29.33203125 C61.54969792 33.88549177 63.2769513 38.4419112 65 43 C67.04605569 43.21237595 67.04605569 43.21237595 68.40112305 41.84179688 C69.19836792 41.03838867 69.19836792 41.03838867 70.01171875 40.21875 C70.60533203 39.62320313 71.19894531 39.02765625 71.81054688 38.4140625 C72.42994141 37.78242188 73.04933594 37.15078125 73.6875 36.5 C74.28755859 35.89929688 74.88761719 35.29859375 75.50585938 34.6796875 C79.22877179 30.9207856 82.75626247 27.03582859 86.21655273 23.03515625 C89.2894523 19.52855929 92.49081593 16.14345272 95.6875 12.75 C96.66299805 11.70972656 96.66299805 11.70972656 97.65820312 10.6484375 C99.43294789 8.7597183 101.20737414 6.87176094 103 5 C103.60223389 4.28094482 104.20446777 3.56188965 104.82495117 2.82104492 C107.69351945 0.41935553 109.51401091 0.40789676 113.2265625 0.25390625 C114.46954102 0.1986377 115.71251953 0.14336914 116.99316406 0.08642578 C118.32867193 0.05313864 119.66430033 0.02440647 121 0 C121.66559937 -0.01218567 122.33119873 -0.02437134 123.01696777 -0.03692627 C127.80353217 -0.10762608 132.58818162 -0.09236127 137.375 -0.0625 C138.8046859 -0.05746589 140.23437355 -0.05290643 141.6640625 -0.04882812 C145.10941245 -0.03799465 148.55469427 -0.02083984 152 0 C150.68516427 2.91834217 149.28366724 4.94920929 146.98828125 7.171875 C146.39901855 7.74945557 145.80975586 8.32703613 145.20263672 8.92211914 C144.5788916 9.52531982 143.95514648 10.12852051 143.3125 10.75 C138.97975861 15.00901816 134.75068265 19.26407683 130.81640625 23.8984375 C126.86978734 28.46463314 122.7064639 32.84332587 118.60253906 37.26806641 C116.99870199 39.00140281 115.40079626 40.74001539 113.8046875 42.48046875 C109.15136985 47.55037188 104.48501386 52.57870622 99.5703125 57.3984375 C97.20413208 59.81170608 95.03529136 62.38786671 92.83203125 64.94921875 C90.2776315 67.80862145 87.55093311 70.47469675 84.796875 73.140625 C84.20390625 73.75421875 83.6109375 74.3678125 83 75 C82.36578125 75.55171875 81.7315625 76.1034375 81.078125 76.671875 C79.62102794 79.18090096 79.62102794 79.18090096 80.94921875 82.82421875 C81.613127 84.55714972 82.29959925 86.28149405 83 88 C83.41330566 89.06943848 83.82661133 90.13887695 84.25244141 91.24072266 C85.48084466 94.40975314 86.7270556 97.57060909 87.98345947 100.72857666 C89.42503369 104.35219945 90.85881868 107.97890261 92.29296875 111.60546875 C92.59271606 112.36299438 92.89246338 113.12052002 93.20129395 113.90100098 C95.44127244 119.56847008 97.65804194 125.24471169 99.86328125 130.92578125 C100.17922745 131.7397084 100.49517365 132.55363556 100.82069397 133.39222717 C102.05900057 136.58397276 103.29651719 139.77602055 104.53189087 142.96890259 C105.38747691 145.18016679 106.24446277 147.39088467 107.1015625 149.6015625 C107.35106155 150.24817337 107.60056061 150.89478424 107.85762024 151.56098938 C109.06293108 154.66756683 110.32117307 157.73387764 111.68115234 160.77490234 C113 164 113 164 113 167 C97.16 167 81.32 167 65 167 C60.5061296 158.01225919 60.5061296 158.01225919 59.359375 154.765625 C59.09713135 154.03609619 58.8348877 153.30656738 58.56469727 152.55493164 C58.29584717 151.7943042 58.02699707 151.03367676 57.75 150.25 C54.87370778 142.24254942 51.77516156 134.34751964 48.48925781 126.49902344 C48.1640918 125.70657227 47.83892578 124.91412109 47.50390625 124.09765625 C47.21330322 123.40164307 46.9227002 122.70562988 46.62329102 121.98852539 C46 120 46 120 46 116 C38.39589618 122.47157772 31.4189846 129.29296314 24.9140625 136.8671875 C22.69548172 139.33932036 20.36293331 141.66562178 18 144 C15.06881809 146.89591958 12.23596826 149.80242571 9.5625 152.9375 C8.3798349 154.29589128 7.19172059 155.64954613 6 157 C5.1440625 157.97066406 4.288125 158.94132813 3.40625 159.94140625 C2.46032423 160.96278493 1.51240752 161.98232339 0.5625 163 C-0.30246094 163.94875 -1.16742188 164.8975 -2.05859375 165.875 C-6.03429256 168.747218 -8.19480246 168.4111399 -13 168 C-13.51122048 164.06387423 -14.00686338 160.12592893 -14.5 156.1875 C-14.64308594 155.08728516 -14.78617187 153.98707031 -14.93359375 152.85351562 C-15.34015532 149.57198294 -15.6887769 146.29188822 -16 143 C-16.10127197 141.99557861 -16.20254395 140.99115723 -16.30688477 139.95629883 C-16.58121872 135.21908885 -16.62395404 132.02901429 -13.40234375 128.36328125 C-12.27337034 127.31759276 -11.11693717 126.30091962 -9.9375 125.3125 C-8.72619924 124.20624781 -7.51654769 123.09818698 -6.30859375 121.98828125 C-5.43823486 121.21218506 -5.43823486 121.21218506 -4.55029297 120.42041016 C-2.70744416 118.73195435 -1.09249071 116.92476613 0.5 115 C4.15988989 110.68132993 8.20476205 106.76927739 12.22680664 102.79272461 C15.8188782 99.2256595 19.2459902 95.58468089 22.49609375 91.69921875 C24.05622424 89.93647391 25.73964163 88.43486198 27.5 86.875 C30.30934324 84.31152133 30.30934324 84.31152133 29.88427734 81.43579102 C28.70728812 76.86269071 27.06881918 72.54703839 25.3515625 68.15234375 C24.98270935 67.19487244 24.6138562 66.23740112 24.23382568 65.25091553 C23.44425945 63.2033669 22.65210805 61.1568136 21.85760498 59.11117554 C20.62081959 55.92673639 19.39074653 52.73978102 18.16259766 49.55200195 C16.53452371 45.32739634 14.90414295 41.10369529 13.27148438 36.88085938 C10.52340939 29.77012194 7.78948673 22.6540883 5.07733154 15.52957153 C4.38727867 13.71970444 3.692945 11.91147137 2.99853516 10.10327148 C2.59425293 9.04180908 2.1899707 7.98034668 1.7734375 6.88671875 C1.25402588 5.52873169 1.25402588 5.52873169 0.72412109 4.14331055 C0 2 0 2 0 0 Z " fill="#131313" transform="translate(431,440)"/>
<path d="M0 0 C2.06494772 3.47415305 2.47241722 6.59173435 2.89453125 10.5859375 C2.9669957 11.25556015 3.03946014 11.9251828 3.11412048 12.61509705 C3.35508889 14.86761669 3.58404619 17.12117907 3.8125 19.375 C3.9798514 20.97162892 4.14750286 22.56822642 4.31542969 24.16479492 C6.76834862 47.75374137 8.86368992 71.38072687 11 95 C-14.00745711 95.79128199 -38.98021352 96.14213303 -64 96 C-62.39548892 92.56539915 -60.41302358 89.49783169 -58.30859375 86.34765625 C-57.93567703 85.78828369 -57.56276031 85.22891113 -57.17854309 84.65258789 C-55.93400737 82.78755598 -54.6859028 80.92494524 -53.4375 79.0625 C-52.55103711 77.73694437 -51.66464552 76.41134105 -50.77832031 75.08569336 C-47.85736804 70.72033009 -44.92957393 66.35958073 -42 62 C-41.48584534 61.23478027 -40.97169067 60.46956055 -40.44195557 59.68115234 C-28.91430616 42.52961698 -17.38026446 25.38450172 -5.50488281 8.47094727 C-4.91545898 7.63104248 -4.32603516 6.7911377 -3.71875 5.92578125 C-3.21279297 5.20817627 -2.70683594 4.49057129 -2.18554688 3.7512207 C-0.94870293 2.00664325 -0.94870293 2.00664325 0 0 Z " fill="#F7F7F7" transform="translate(337,426)"/>
<path d="M0 0 C20.13 0 40.26 0 61 0 C60.34 3.63 59.68 7.26 59 11 C58.34 11 57.68 11 57 11 C57.66 8.03 58.32 5.06 59 2 C39.2 2 19.4 2 -1 2 C-0.67 1.34 -0.34 0.68 0 0 Z " fill="#000000" transform="translate(817,371)"/>
<path d="M0 0 C15.51 0 31.02 0 47 0 C47 0.33 47 0.66 47 1 C25.22 1.99 25.22 1.99 3 3 C3.33 4.65 3.66 6.3 4 8 C3.34 7.67 2.68 7.34 2 7 C1.34 4.69 0.68 2.38 0 0 Z " fill="#282829" transform="translate(431,440)"/>
<path d="M0 0 C3.18748029 -0.02932572 6.37492528 -0.04690739 9.5625 -0.0625 C10.45775391 -0.07087891 11.35300781 -0.07925781 12.27539062 -0.08789062 C17.29997943 -0.10629571 22.04817291 0.13733602 27 1 C27 1.33 27 1.66 27 2 C22.61433929 3.08794502 18.34417235 3.12897314 13.85546875 3.09765625 C13.08568192 3.0962413 12.31589508 3.09482635 11.52278137 3.09336853 C9.07764712 3.08779606 6.63260632 3.07524871 4.1875 3.0625 C2.52408987 3.05748144 0.8606783 3.05291915 -0.80273438 3.04882812 C-4.86852528 3.03783566 -8.93424683 3.0205901 -13 3 C-13 2.67 -13 2.34 -13 2 C-6.565 1.505 -6.565 1.505 0 1 C0 0.67 0 0.34 0 0 Z " fill="#1D1D1D" transform="translate(310,521)"/>
<path d="M0 0 C0.66 0 1.32 0 2 0 C1.3942508 3.50075837 0.0578489 5.46631557 -2.1875 8.1875 C-5.74997917 12.61851748 -8.91857652 17.22548669 -12 22 C-12.66 21.67 -13.32 21.34 -14 21 C-11.71948704 17.49261194 -9.42379483 13.99542776 -7.125 10.5 C-6.47402344 9.49839844 -5.82304687 8.49679687 -5.15234375 7.46484375 C-4.52714844 6.51738281 -3.90195313 5.56992187 -3.2578125 4.59375 C-2.6817627 3.71396484 -2.10571289 2.83417969 -1.51220703 1.92773438 C-1.01317871 1.29158203 -0.51415039 0.65542969 0 0 Z " fill="#080807" transform="translate(207,542)"/>
<path d="M0 0 C10.23 0 20.46 0 31 0 C30.34 1.32 29.68 2.64 29 4 C28.67 3.01 28.34 2.02 28 1 C18.76 1 9.52 1 0 1 C0 0.67 0 0.34 0 0 Z " fill="#464646" transform="translate(552,440)"/>
<path d="M0 0 C0.33 0 0.66 0 1 0 C1.33 4.95 1.66 9.9 2 15 C1.01 14.34 0.02 13.68 -1 13 C-1.328125 10.9765625 -1.328125 10.9765625 -1.25 8.625 C-1.23453125 7.85414063 -1.2190625 7.08328125 -1.203125 6.2890625 C-1.00838739 4.0945194 -0.59915017 2.11635304 0 0 Z " fill="#1E1E1E" transform="translate(388,457)"/>
<path d="M0 0 C1.04449911 3.13349732 0.93423645 3.98968256 0 7 C-1.65 7.33 -3.3 7.66 -5 8 C-3.62845496 5.04590299 -2.01136276 2.55991624 0 0 Z M-6 8 C-6 8.99 -6 9.98 -6 11 C-6.99 11.495 -6.99 11.495 -8 12 C-7.34 10.68 -6.68 9.36 -6 8 Z " fill="#ECEDEC" transform="translate(811,444)"/>
<path d="M0 0 C1.80330533 3.60661066 2.46599103 6.08393425 3 10 C1.35 9.67 -0.3 9.34 -2 9 C-1.34 6.03 -0.68 3.06 0 0 Z " fill="#E5E6E6" transform="translate(640,447)"/>
<path d="M0 0 C0.99 0 1.98 0 3 0 C1.5140084 4.59306496 -0.85014682 7.43569245 -4 11 C-4 7.80389448 -3.45328458 6.58282374 -2 3.8125 C-1.62875 3.09707031 -1.2575 2.38164062 -0.875 1.64453125 C-0.441875 0.83048828 -0.441875 0.83048828 0 0 Z " fill="#090909" transform="translate(769,495)"/>
<path d="M0 0 C0.99 0.33 1.98 0.66 3 1 C1.35 2.65 -0.3 4.3 -2 6 C-2.66 5.34 -3.32 4.68 -4 4 C-2.68 2.68 -1.36 1.36 0 0 Z " fill="#212121" transform="translate(453,532)"/>
<path d="M0 0 C0.99 0.33 1.98 0.66 3 1 C3.33 3.64 3.66 6.28 4 9 C2.68 8.67 1.36 8.34 0 8 C0 5.36 0 2.72 0 0 Z " fill="#1E1D1E" transform="translate(680,428)"/>
<path d="M0 0 C-0.66 3.63 -1.32 7.26 -2 11 C-2.66 11 -3.32 11 -4 11 C-3.34 8.03 -2.68 5.06 -2 2 C-2.66 1.67 -3.32 1.34 -4 1 C-2 0 -2 0 0 0 Z " fill="#080707" transform="translate(878,371)"/>
</svg>
