<svg xmlns="http://www.w3.org/2000/svg" viewBox="0 0 1024 1024"><path fill="#fff" d="M0 0h1024v1024H0V0Z"/><path fill="currentColor" d="M827 370h4a526 526 0 0 0 15 0h11l21 1a291 291 0 0 1-11 45 12676 12676 0 0 0-38 141l-17 64h-48l3-15 1-2 1-6 4-12 2-7 14-51a54861 54861 0 0 1 20-75l1-3 1-5-1 2a374881 374881 0 0 1-110 146c-10 2-20 1-30 0a101 101 0 0 1-5-19l-2-10a21163 21163 0 0 0-5-25l-15-77v-3l-1-3-1-3-1-3a94187 94187 0 0 0-33 127l-2 9-1 4-9 31h-46a1224 1224 0 0 1 19-74l1-3 9-36 22-80a13814 13814 0 0 0 12-47l1-4 2-5h57l3 12 1 3v4l1 3a5813 5813 0 0 1 17 97v3a756 756 0 0 0 5 32l11-13a1116 1116 0 0 1 45-60 2425 2425 0 0 1 51-68l4-5c5-7 8-10 17-10Zm-499 0a299 299 0 0 1 21 1h31l6 55 2 18a57925 57925 0 0 1 4 40l9 95a43782 43782 0 0 0 3 42h-47l-3-20v-2a1381 1381 0 0 1-1-15l-1-4v-16a1764 1764 0 0 0-59-2c-28-3-28-3-52 6-5 5-8 11-11 18-1 4-4 7-6 11l-6 9-2 3-2 2-2 3-1 2-4 5-12 1h-4a835 835 0 0 1-37-1l3-5 2-3 8-12a1116 1116 0 0 0 41-60l22-33 22-33 27-40 35-52 1-2 2-2 3-6c3-3 4-2 8-3Zm103 70a2496 2496 0 0 1 36 0h9l4 2 3 6 1 2 1 3 1 3a2641 2641 0 0 1 10 27l3-1 2-2 2-2 2-1 2-2 10-12 10-10 2-2 5-6 2-2c3-3 5-3 8-3h10a683 683 0 0 1 29 0l-5 7-2 2-2 2-12 13-12 13a1592 1592 0 0 0-19 20l-7 8-8 8-2 2-2 2v6l2 5 1 3 4 10 4 11 1 2a2986 2986 0 0 1 14 36l1 2 4 9 1 6h-48l-6-12v-2l-1-3-10-24v-2l-1-2-1-6a189 189 0 0 0-28 28 143 143 0 0 0-12 13l-3 3-2 3-3 3c-4 3-6 2-11 2l-1-12-1-3-1-10v-3c-1-5-1-8 3-12a93 93 0 0 1 7-6l1-2 6-5 11-12 10-11 6-5 2-6-5-13-1-3a2729 2729 0 0 0-22-58l-1-3-1-4Z"/><path fill="#fff" d="M337 426c2 3 2 7 3 11v2a1224 1224 0 0 1 1 11l7 71-75 1 6-10 1-1a3242 3242 0 0 1 15-23l2-2 34-52 2-2 2-2 2-4Z"/></svg>
